<svg width="12" height="13" viewBox="0 0 12 13" fill="none" xmlns="http://www.w3.org/2000/svg">
<path d="M1 3.2002H2.1H10.9" stroke="#DB2512" stroke-linecap="round" stroke-linejoin="round"/>
<path d="M3.74961 3.2V2.1C3.74961 1.80826 3.8655 1.52847 4.07179 1.32218C4.27808 1.11589 4.55787 1 4.84961 1H7.04961C7.34135 1 7.62114 1.11589 7.82743 1.32218C8.03372 1.52847 8.14961 1.80826 8.14961 2.1V3.2M9.79961 3.2V10.9C9.79961 11.1917 9.68372 11.4715 9.47743 11.6778C9.27114 11.8841 8.99135 12 8.69961 12H3.19961C2.90787 12 2.62808 11.8841 2.42179 11.6778C2.2155 11.4715 2.09961 11.1917 2.09961 10.9V3.2H9.79961Z" stroke="#DB2512" stroke-linecap="round" stroke-linejoin="round"/>
<path d="M4.85059 5.9502V9.25019" stroke="#DB2512" stroke-linecap="round" stroke-linejoin="round"/>
<path d="M7.0498 5.9502V9.25019" stroke="#DB2512" stroke-linecap="round" stroke-linejoin="round"/>
</svg>
