<svg width="593" height="544" viewBox="0 0 593 544" fill="none" xmlns="http://www.w3.org/2000/svg">
<path opacity="0.6" d="M542.522 454.231L408.9 531.365C404.706 533.777 399.953 535.047 395.116 535.047C390.278 535.047 385.525 533.777 381.332 531.365L79.905 357.273C77.9699 356.158 76.3627 354.553 75.2451 352.619C74.1275 350.685 73.5391 348.491 73.5391 346.258C73.5391 344.024 74.1275 341.83 75.2451 339.897C76.3627 337.963 77.9699 336.358 79.905 335.243L214.984 257.189C218.937 254.9 223.424 253.694 227.992 253.694C232.56 253.694 237.047 254.9 240.999 257.189L496.991 404.822L533.224 425.913L542.503 431.281C544.523 432.438 546.202 434.108 547.371 436.122C548.539 438.136 549.156 440.422 549.158 442.751C549.16 445.079 548.547 447.367 547.382 449.383C546.217 451.398 544.54 453.071 542.522 454.231Z" fill="#DAE1E5"/>
<path d="M538.475 427.677L413.404 499.845C406.82 503.656 399.347 505.662 391.74 505.662C384.133 505.662 376.661 503.656 370.077 499.845L295.195 456.59L145.661 370.311L75.0344 329.453C73.4957 328.566 72.179 327.341 71.1838 325.869C70.1885 324.398 69.5408 322.72 69.2896 320.961C69.0384 319.203 69.1903 317.411 69.7339 315.719C70.2775 314.028 71.1985 312.483 72.4271 311.201C73.2042 310.418 74.0808 309.741 75.0344 309.187L221.022 224.826C222.115 224.185 223.359 223.848 224.626 223.848C225.893 223.848 227.137 224.185 228.23 224.826L538.514 403.922C540.592 405.122 542.318 406.847 543.517 408.926C544.717 411.004 545.349 413.361 545.349 415.761C545.349 418.161 544.717 420.519 543.517 422.597C542.318 424.675 540.592 426.401 538.514 427.601L538.475 427.677Z" fill="#DB2512"/>
<path d="M538.535 411.149L404.931 488.263C400.738 490.676 395.985 491.946 391.147 491.946C386.31 491.946 381.557 490.676 377.363 488.263L75.9178 314.191C73.9872 313.074 72.3841 311.47 71.2696 309.538C70.1551 307.606 69.5684 305.415 69.5684 303.185C69.5684 300.955 70.1551 298.764 71.2696 296.832C72.3841 294.9 73.9872 293.296 75.9178 292.18L210.978 214.203C214.931 211.913 219.418 210.708 223.985 210.708C228.553 210.708 233.04 211.913 236.993 214.203L492.965 361.932L529.256 382.869L538.535 388.237C540.545 389.399 542.214 391.068 543.375 393.079C544.536 395.09 545.147 397.371 545.147 399.693C545.147 402.015 544.536 404.296 543.375 406.307C542.214 408.318 540.545 409.988 538.535 411.149Z" fill="#F9BEBD"/>
<path opacity="0.79" d="M98.0408 292.889L128.58 274.617L218.013 221.105C219.941 219.967 222.139 219.366 224.378 219.366C226.617 219.366 228.815 219.967 230.743 221.105L522.316 392.436C523.529 393.146 524.535 394.161 525.234 395.381C525.933 396.6 526.301 397.981 526.301 399.387C526.301 400.792 525.933 402.173 525.234 403.393C524.535 404.612 523.529 405.627 522.316 406.337L404.644 474.823C400.613 477.151 396.041 478.376 391.387 478.376C386.733 478.376 382.16 477.151 378.13 474.823L98.2324 314.421C96.3457 313.336 94.7752 311.777 93.6769 309.899C92.5785 308.02 91.9906 305.886 91.9712 303.71C91.9518 301.534 92.5017 299.39 93.5664 297.492C94.6311 295.594 96.1736 294.007 98.0408 292.889Z" fill="#DB2512"/>
<path d="M137.591 281.04L126.721 273.371L185.096 238.648L193.723 243.998C194.38 244.381 194.924 244.93 195.303 245.589C195.681 246.249 195.88 246.995 195.88 247.756C195.88 248.516 195.681 249.263 195.303 249.922C194.924 250.581 194.38 251.13 193.723 251.514L142.345 281.194C141.625 281.637 140.79 281.859 139.945 281.832C139.099 281.804 138.281 281.529 137.591 281.04Z" fill="#FF8381"/>
<g style="mix-blend-mode:soft-light">
<path d="M141.924 268.443L168.475 253.354C168.857 253.134 169.29 253.018 169.731 253.018C170.172 253.018 170.605 253.134 170.987 253.354L171.274 253.507C171.64 253.725 171.943 254.034 172.153 254.403C172.363 254.773 172.474 255.191 172.474 255.616C172.474 256.042 172.363 256.46 172.153 256.83C171.943 257.199 171.64 257.508 171.274 257.726L145.317 273.217C144.915 273.471 144.45 273.606 143.975 273.606C143.5 273.606 143.034 273.471 142.633 273.217L141.77 272.661C141.412 272.431 141.12 272.111 140.923 271.734C140.726 271.356 140.631 270.934 140.646 270.509C140.662 270.083 140.788 269.669 141.011 269.307C141.235 268.945 141.55 268.647 141.924 268.443Z" fill="#020202"/>
</g>
<g style="mix-blend-mode:soft-light">
<path d="M182.183 250.401C182.183 251.667 180.726 252.683 178.943 252.683C177.16 252.683 175.723 251.667 175.723 250.401C175.723 249.136 177.16 248.139 178.943 248.139C180.726 248.139 182.183 249.155 182.183 250.401Z" fill="#020202"/>
</g>
<g opacity="0.5">
<mask id="mask0_51833_3697" style="mask-type:luminance" maskUnits="userSpaceOnUse" x="345" y="372" width="134" height="80">
<path d="M407.785 451.453L345 412.455L415.741 372L478.526 410.979L407.785 451.453Z" fill="white"/>
</mask>
<g mask="url(#mask0_51833_3697)">
<path d="M408.801 409.023C407.46 409.79 407.306 410.941 408.495 411.746C418.886 418.207 422.49 427.199 419.633 435.942C419.211 437.304 421.186 438.358 423.467 437.956C424.007 437.871 424.527 437.689 425.001 437.419C425.471 437.188 425.84 436.792 426.036 436.307C429.238 426.452 425.193 416.29 413.499 408.985C412.852 408.647 412.138 408.456 411.409 408.426C410.68 408.396 409.953 408.528 409.281 408.812C409.121 408.867 408.967 408.938 408.821 409.023" fill="white"/>
<path d="M406.406 417.269C405.562 417.767 405.294 418.534 405.888 419.09C408.443 421.354 410.162 424.411 410.771 427.77C411.379 431.129 410.841 434.595 409.243 437.611C408.783 438.551 409.876 439.395 411.486 439.337C412.084 439.324 412.669 439.166 413.192 438.877C413.489 438.726 413.735 438.493 413.902 438.206C417.429 431.131 416.356 423.596 410.068 417.441C409.597 417.1 409.045 416.887 408.467 416.823C407.889 416.759 407.304 416.847 406.77 417.077L406.348 417.269" fill="white"/>
<path d="M402.417 404.575C396.992 407.681 396.397 412.57 401.094 415.484C401.625 415.768 402.218 415.916 402.819 415.916C403.421 415.916 404.014 415.768 404.545 415.484C405.542 414.909 405.657 413.989 404.775 413.452C401.842 411.535 402.206 408.563 405.619 406.607C407.377 405.647 409.341 405.126 411.344 405.09C413.347 405.053 415.329 405.501 417.121 406.396C422.057 409.266 426.175 413.352 429.084 418.264C429.462 418.675 429.953 418.965 430.495 419.098C431.037 419.231 431.607 419.201 432.132 419.012C432.436 418.944 432.728 418.828 432.995 418.667C433.704 418.264 434.03 417.651 433.723 417.095C430.581 411.792 426.132 407.383 420.802 404.287C416.105 401.373 407.862 401.526 402.436 404.632" fill="white"/>
<path d="M431.903 421.544C431.27 421.89 430.944 422.407 431.079 422.906C432.097 426.357 432.243 430.007 431.501 433.528C431.251 434.678 433.188 435.445 434.951 434.812L435.507 434.563C435.702 434.466 435.875 434.332 436.016 434.167C436.158 434.002 436.265 433.811 436.332 433.604C437.156 429.795 437.011 425.839 435.91 422.1C435.68 421.333 434.415 420.893 433.092 421.103C432.672 421.155 432.268 421.292 431.903 421.506" fill="white"/>
<path d="M423.506 400.779C422.49 401.354 422.394 402.274 423.276 402.811C435.066 410.155 440.53 419.837 440.07 429.75C440.07 430.977 442.313 431.571 443.904 430.727H444.038C444.253 430.625 444.441 430.473 444.585 430.282C444.728 430.092 444.823 429.87 444.862 429.635C445.438 419.013 439.552 408.544 426.899 400.779C426.367 400.5 425.775 400.354 425.174 400.354C424.573 400.354 423.981 400.5 423.448 400.779" fill="white"/>
<path d="M397.167 401.278C388.348 406.321 387.39 414.277 395.001 419.013C396.53 419.928 397.929 421.043 399.161 422.33C399.628 422.68 400.177 422.9 400.756 422.971C401.334 423.042 401.921 422.96 402.458 422.733C402.618 422.678 402.772 422.607 402.918 422.522C403.743 422.042 404.011 421.295 403.474 420.72C402.052 419.245 400.448 417.956 398.701 416.885C392.835 413.242 393.582 407.107 400.35 403.234C403.708 401.414 407.441 400.39 411.258 400.243C411.835 400.215 412.399 400.058 412.906 399.783C413.128 399.685 413.321 399.53 413.466 399.336C413.61 399.141 413.702 398.911 413.731 398.67C413.731 397.865 412.677 397.271 411.354 397.347C406.395 397.529 401.542 398.84 397.167 401.182" fill="white"/>
<path d="M403.781 430.115C403.553 430.214 403.353 430.37 403.202 430.568C403.051 430.766 402.954 430.999 402.918 431.246C402.834 433.491 402.174 435.676 401.001 437.592C400.503 438.455 401.327 439.299 402.784 439.395C403.51 439.443 404.235 439.283 404.874 438.934C405.162 438.781 405.406 438.557 405.583 438.283C406.929 436.079 407.669 433.559 407.73 430.978C407.73 430.172 406.676 429.597 405.315 429.674C404.757 429.696 404.213 429.847 403.724 430.115" fill="white"/>
<path d="M442.353 408.256C441.529 408.735 441.318 409.483 441.778 410.058C445.121 414.21 447.268 419.195 447.99 424.477C448.143 425.665 450.52 426.049 451.958 425.224L452.284 425.013C452.462 424.904 452.608 424.748 452.706 424.562C452.804 424.377 452.85 424.168 452.84 423.959C452.057 418.333 449.75 413.028 446.168 408.62C445.673 408.214 445.071 407.96 444.435 407.889C443.799 407.817 443.156 407.932 442.583 408.218L442.353 408.333" fill="white"/>
<path d="M391.855 397.96C385.759 401.469 382.078 406.205 381.771 410.998C381.771 411.784 382.768 412.397 384.11 412.34C384.703 412.332 385.283 412.174 385.797 411.88C386.018 411.788 386.211 411.641 386.359 411.453C386.507 411.265 386.604 411.042 386.641 410.806C386.89 406.818 389.958 402.849 395.038 399.954C405.199 394.202 420.65 393.838 429.45 399.302C431.917 400.838 434.257 402.569 436.447 404.479C436.945 404.798 437.514 404.988 438.103 405.032C438.692 405.075 439.283 404.971 439.821 404.728L440.109 404.575C441.01 404.057 441.221 403.252 440.588 402.658C438.266 400.618 435.77 398.783 433.131 397.174C422.568 390.617 404.048 390.962 391.855 397.922" fill="white"/>
<path d="M383.898 415.217C383.131 415.639 382.843 416.329 383.15 416.885C384.564 419.217 386.541 421.156 388.901 422.522C394.921 426.356 396.302 431.763 393.292 436.71C392.832 437.477 393.445 438.263 394.691 438.474C395.546 438.604 396.42 438.457 397.183 438.052C397.467 437.917 397.706 437.704 397.874 437.438C401.478 431.495 399.791 424.918 392.582 420.413C390.6 419.269 388.949 417.631 387.79 415.658C387.359 415.207 386.799 414.902 386.188 414.786C385.576 414.669 384.943 414.746 384.377 415.006C384.223 415.061 384.075 415.131 383.936 415.217" fill="white"/>
<path d="M415.839 388.221C415.473 388.399 415.186 388.706 415.033 389.083C414.803 389.889 415.666 390.579 416.95 390.636C423.464 390.78 429.837 392.553 435.489 395.794C443.962 401.067 449.963 407.298 453.299 414.488C453.657 414.909 454.134 415.213 454.667 415.36C455.201 415.507 455.766 415.49 456.289 415.312C456.625 415.247 456.948 415.131 457.248 414.967C457.938 414.564 458.264 413.989 458.015 413.452C454.468 405.917 448.142 399.245 439.17 393.685C432.668 389.966 425.34 387.93 417.852 387.76C417.138 387.712 416.425 387.872 415.8 388.221" fill="white"/>
<path d="M386.544 394.663C370.958 403.598 369.29 417.671 382.71 426.031C386.544 428.427 387.58 431.898 385.893 435.08C385.548 435.752 385.893 436.403 386.947 436.691C387.905 436.957 388.93 436.84 389.804 436.365C390.111 436.206 390.365 435.959 390.532 435.656C392.718 431.514 391.414 427.028 386.41 423.922C374.678 416.636 376.173 404.403 389.727 396.657C394.495 394.021 399.684 392.231 405.064 391.366C405.468 391.302 405.858 391.166 406.214 390.963C406.847 390.618 407.172 390.081 407 389.563C406.827 389.046 405.505 388.356 404.182 388.586C398.01 389.585 392.056 391.641 386.583 394.663" fill="white"/>
<path d="M446.512 393.283C445.554 393.819 445.381 394.682 446.129 395.2C450.117 398.057 453.685 401.458 456.731 405.304C457.296 405.764 457.99 406.038 458.717 406.09C459.445 406.141 460.17 405.967 460.795 405.592C461.019 405.489 461.213 405.331 461.361 405.134C461.508 404.936 461.603 404.705 461.638 404.461C458.37 400.182 454.495 396.403 450.136 393.244C449.612 392.959 449.026 392.81 448.43 392.81C447.833 392.81 447.247 392.959 446.723 393.244H446.589" fill="white"/>
<path d="M386.429 388.757C385.547 389.275 385.317 390.08 385.988 390.675C386.48 390.999 387.046 391.192 387.633 391.236C388.221 391.28 388.809 391.172 389.343 390.924C404.68 384.29 424.675 384.079 438.114 390.387C438.634 390.597 439.194 390.69 439.753 390.66C440.313 390.631 440.86 390.479 441.354 390.215L441.565 390.061C441.766 389.967 441.932 389.814 442.042 389.621C442.152 389.429 442.2 389.208 442.179 388.987C442.158 388.767 442.069 388.558 441.925 388.39C441.781 388.222 441.588 388.102 441.373 388.048C426.324 380.973 403.856 381.222 386.736 388.662L386.429 388.796" fill="white"/>
<path d="M375.444 395.315L375.119 395.545C364.095 404.537 362.389 416.06 370.767 424.899C371.236 425.243 371.785 425.461 372.363 425.531C372.94 425.602 373.526 425.523 374.064 425.302L374.524 425.071C375.368 424.592 375.617 423.844 375.08 423.288C367.603 415.389 369.118 405.112 378.914 397.079C379.739 396.388 379.547 395.506 378.493 395.161C377.99 394.983 377.457 394.911 376.925 394.951C376.394 394.991 375.876 395.141 375.406 395.391" fill="white"/>
<path d="M377.765 428.177C376.864 428.695 376.653 429.5 377.305 430.094C377.711 430.407 378.035 430.812 378.252 431.275C378.469 431.739 378.572 432.248 378.551 432.759C378.551 433.2 378.839 433.584 379.375 433.833C379.902 434.034 380.466 434.119 381.028 434.082C381.59 434.046 382.138 433.889 382.635 433.622C382.836 433.531 383.012 433.393 383.149 433.22C383.286 433.046 383.379 432.842 383.42 432.625C383.454 431.824 383.297 431.026 382.964 430.296C382.631 429.567 382.131 428.926 381.503 428.426C381.085 428.11 380.599 427.896 380.083 427.799C379.567 427.703 379.036 427.727 378.532 427.87C378.245 427.946 377.968 428.055 377.708 428.196" fill="white"/>
</g>
</g>
<path d="M302.442 87.2004L303.918 216.772C303.923 217.582 304.14 218.376 304.547 219.075C304.954 219.775 305.537 220.356 306.237 220.76L464.035 311.871C464.739 312.278 465.538 312.492 466.351 312.493C467.165 312.493 467.964 312.28 468.669 311.874C469.374 311.468 469.96 310.884 470.368 310.18C470.776 309.476 470.992 308.678 470.994 307.864L471.358 180.554C471.362 179.743 471.151 178.945 470.747 178.241C470.343 177.537 469.76 176.953 469.057 176.547L309.401 83.174C308.696 82.7602 307.894 82.5407 307.076 82.5381C306.259 82.5355 305.456 82.7498 304.748 83.1592C304.04 83.5685 303.454 84.1583 303.049 84.8682C302.644 85.5782 302.434 86.3829 302.442 87.2004Z" fill="#FF8381"/>
<path d="M462.08 313.635L467.506 312.331L460.643 302.821L462.08 313.635Z" fill="#FF8381"/>
<path d="M299.549 84.3233L305.741 82.7319L306.278 98.0513L299.549 84.3233Z" fill="#FF8381"/>
<path opacity="0.79" d="M465.109 182.145L464.726 309.455C464.724 310.269 464.508 311.067 464.1 311.771C463.692 312.475 463.106 313.059 462.401 313.465C461.696 313.871 460.897 314.084 460.084 314.084C459.27 314.083 458.471 313.869 457.767 313.462L378.035 267.447L299.989 222.371C299.294 221.969 298.714 221.394 298.308 220.702C297.901 220.01 297.681 219.224 297.669 218.421L296.174 88.8488C296.168 88.027 296.379 87.2182 296.786 86.5045C297.193 85.7907 297.782 85.1973 298.493 84.7846C299.203 84.3718 300.01 84.1544 300.832 84.1543C301.654 84.1542 302.461 84.3715 303.171 84.7841L437.484 163.394L462.809 178.196C463.497 178.604 464.069 179.181 464.472 179.872C464.874 180.563 465.094 181.346 465.109 182.145Z" fill="#DB2512"/>
<path d="M308.098 186.574V200.015L330.777 213.167V199.88L308.098 186.574Z" fill="#FF8381"/>
<path d="M336.223 202.622V216.062L358.921 229.215V215.909L336.223 202.622Z" fill="#FF8381"/>
<path d="M363.752 218.65V232.091L386.45 245.244V231.957L363.752 218.65Z" fill="#FF8381"/>
<path d="M393.102 235.906V249.347L415.8 262.499V249.193L393.102 235.906Z" fill="#FF8381"/>
<mask id="mask1_51833_3697" style="mask-type:luminance" maskUnits="userSpaceOnUse" x="427" y="178" width="30" height="49">
<path d="M427.014 218.747L427.32 178.406L456.019 186.401L455.713 226.742L427.014 218.747Z" fill="white"/>
</mask>
<g mask="url(#mask1_51833_3697)">
<path d="M441.66 182.413C433.742 180.208 427.243 187.437 427.167 198.576C427.09 209.716 433.435 220.549 441.353 222.754C449.271 224.959 455.77 217.711 455.866 206.572C455.962 195.432 449.597 184.618 441.66 182.413Z" fill="#FF8381"/>
</g>
<mask id="mask2_51833_3697" style="mask-type:luminance" maskUnits="userSpaceOnUse" x="315" y="115" width="48" height="62">
<path d="M315.424 149.896L315.481 115.346L362.623 142.092L362.565 176.661L315.424 149.896Z" fill="white"/>
</mask>
<g mask="url(#mask2_51833_3697)">
<path d="M318.663 146.809V136.168L320.101 136.992C320.82 137.396 321.381 138.031 321.692 138.795C322.078 139.949 322.247 141.164 322.19 142.38V145.39C322.288 146.226 322.142 147.071 321.769 147.825C321.481 148.151 321.059 148.17 320.503 147.825L318.586 146.79M318.586 131.221V122.095L320.139 122.977C320.737 123.317 321.183 123.873 321.385 124.53C321.69 125.477 321.827 126.469 321.788 127.463V129.381C321.894 130.264 321.712 131.158 321.27 131.931C320.925 132.276 320.446 132.257 319.832 131.931L318.567 131.221M320.235 118.088L315.48 115.308V149.819L320.561 152.714C322.19 153.635 323.417 153.635 324.242 152.714C325.246 151.101 325.685 149.198 325.488 147.308V144.508C325.511 142.831 325.33 141.157 324.951 139.523C324.62 138.113 323.963 136.8 323.034 135.689C323.424 135.579 323.778 135.366 324.058 135.073C324.338 134.779 324.534 134.416 324.625 134.021C325.004 132.681 325.172 131.29 325.124 129.898V128.729C325.195 126.476 324.811 124.233 323.992 122.133C323.266 120.403 321.976 118.971 320.331 118.069" fill="#FF8381"/>
<path d="M330.453 147.461L332.044 130.876L333.578 149.224L330.453 147.461ZM334.575 126.178L329.84 123.494L326.504 156.088L329.475 157.776L330.031 151.832L334 154.075L334.556 160.671L337.815 162.588L334.575 126.159" fill="#FF8381"/>
<path d="M349.584 134.711L346.708 133.082L346.689 153.77L343.392 131.184L339.327 128.883L339.289 163.452L342.203 165.101L342.222 140.061L346.229 167.402L349.546 169.281L349.584 134.711Z" fill="#FF8381"/>
<path d="M362.622 142.111L359.382 140.27L355.126 152.906L355.145 137.874L351.906 136.033L351.867 170.583L355.107 172.424L355.126 161.802L356.123 159.214L359.248 174.782L362.565 176.661L358.098 154.938L362.622 142.111Z" fill="#FF8381"/>
</g>
<g style="mix-blend-mode:soft-light" opacity="0.5">
<path d="M465.108 182.145L464.725 309.455C464.723 310.268 464.507 311.067 464.099 311.771C463.691 312.475 463.105 313.059 462.4 313.465C461.695 313.871 460.896 314.084 460.082 314.084C459.269 314.083 458.47 313.869 457.766 313.462L378.033 267.446C378.314 266.982 378.671 266.567 379.087 266.219C380.535 265.188 382.214 264.53 383.976 264.302C393.159 262.385 402.591 261.369 411.448 258.263C420.305 255.156 428.817 249.654 432.939 241.198C436.045 234.814 436.351 227.47 436.62 220.338C436.984 209.275 437.367 198.231 437.54 187.169C437.674 179.231 437.674 171.312 437.54 163.355L462.865 178.157C463.548 178.576 464.112 179.162 464.505 179.86C464.897 180.558 465.105 181.344 465.108 182.145Z" fill="#050505"/>
</g>
<path opacity="0.6" d="M117.461 234.277L88.4551 250.67L117.729 267.6L145.93 251.744L117.461 234.277Z" fill="#DAE1E5"/>
<path d="M89.5469 160.364L89.7769 245.531L113.741 259.719L114.91 175.032L89.5469 160.364Z" fill="white"/>
<path d="M139.336 161.305L114.912 175.033L113.742 259.72L139.566 244.363L139.336 161.305Z" fill="#F45350"/>
<path d="M114.68 146.177L89.5469 160.365L114.91 175.032L139.334 161.304L114.68 146.177Z" fill="#FF8381"/>
<g style="mix-blend-mode:soft-light" opacity="0.5">
<path d="M220.141 337.678C250.105 337.678 274.395 321.694 274.395 301.978C274.395 282.261 250.105 266.277 220.141 266.277C190.177 266.277 165.887 282.261 165.887 301.978C165.887 321.694 190.177 337.678 220.141 337.678Z" fill="#050505"/>
</g>
<path opacity="0.79" d="M217.227 327.957C247.19 327.957 271.481 311.974 271.481 292.257C271.481 272.54 247.19 256.557 217.227 256.557C187.263 256.557 162.973 272.54 162.973 292.257C162.973 311.974 187.263 327.957 217.227 327.957Z" fill="#DB2512"/>
<g style="mix-blend-mode:soft-light" opacity="0.5">
<path d="M226.141 274.445C225.868 274.572 225.606 274.72 225.355 274.886C225.118 275.032 224.899 275.206 224.703 275.404C224.523 275.572 224.368 275.766 224.243 275.979C224.122 276.175 224.031 276.388 223.975 276.612L219.105 297.338L201.449 295.075C200.97 295.047 200.49 295.047 200.011 295.075C199.536 295.091 199.062 295.136 198.592 295.21C198.137 295.265 197.688 295.361 197.25 295.497C196.833 295.627 196.423 295.781 196.023 295.957C195.766 296.077 195.517 296.211 195.276 296.36L194.643 296.82C194.45 296.984 194.27 297.164 194.106 297.357C193.959 297.535 193.83 297.728 193.723 297.932C193.471 298.373 193.376 298.887 193.454 299.389C193.54 299.882 193.774 300.337 194.125 300.693C194.54 301.132 195.044 301.478 195.602 301.709C196.294 302.022 197.032 302.223 197.787 302.304L222.709 305.582C223.156 305.621 223.605 305.621 224.051 305.582C224.492 305.611 224.934 305.611 225.374 305.582C225.806 305.521 226.235 305.438 226.659 305.333C227.072 305.224 227.475 305.083 227.866 304.911H227.962C228.268 304.752 228.563 304.573 228.844 304.374C229.1 304.2 229.332 303.994 229.534 303.761C229.723 303.56 229.885 303.334 230.014 303.09C230.144 302.871 230.235 302.631 230.282 302.38L235.286 277.359C235.382 276.92 235.306 276.46 235.075 276.075C234.823 275.643 234.467 275.28 234.04 275.02C233.522 274.675 232.953 274.416 232.352 274.253C231.634 274.053 230.894 273.937 230.148 273.908C229.764 273.908 229.362 273.908 228.978 273.908C228.599 273.932 228.222 273.977 227.847 274.042C227.49 274.109 227.138 274.199 226.793 274.311C226.465 274.403 226.145 274.518 225.834 274.656" fill="#050505"/>
</g>
<path d="M223.882 272.03C223.609 272.157 223.346 272.304 223.096 272.471C222.859 272.617 222.64 272.791 222.444 272.988C222.258 273.157 222.097 273.351 221.965 273.563C221.844 273.758 221.76 273.972 221.715 274.196L216.903 294.922L199.247 292.66C198.762 292.631 198.275 292.631 197.79 292.66C197.311 292.66 196.85 292.66 196.39 292.775C195.936 292.843 195.487 292.946 195.048 293.082C194.624 293.191 194.213 293.346 193.822 293.542C193.56 293.653 193.31 293.788 193.074 293.944C192.845 294.08 192.627 294.234 192.422 294.405C192.235 294.569 192.062 294.749 191.904 294.941C191.423 295.497 191.182 296.221 191.233 296.955C191.322 297.452 191.556 297.912 191.904 298.278C192.332 298.711 192.84 299.056 193.4 299.294C194.094 299.601 194.831 299.801 195.585 299.888L220.508 303.167C220.952 303.227 221.401 303.259 221.85 303.263C222.299 303.26 222.747 303.228 223.192 303.167C223.625 303.113 224.054 303.03 224.476 302.918C224.883 302.818 225.281 302.683 225.665 302.515H225.78H225.875C226.181 302.356 226.476 302.177 226.757 301.978C227.004 301.793 227.235 301.588 227.447 301.364C227.637 301.163 227.798 300.938 227.927 300.693C228.053 300.466 228.143 300.22 228.195 299.965L233.199 274.944C233.276 274.51 233.201 274.064 232.988 273.678C232.737 273.24 232.381 272.871 231.953 272.605C231.431 272.273 230.862 272.021 230.266 271.857C229.547 271.657 228.807 271.541 228.061 271.512C227.665 271.483 227.268 271.483 226.872 271.512C226.493 271.537 226.116 271.581 225.741 271.646L224.687 271.895C224.361 272.01 224.035 272.125 223.747 272.26" fill="white"/>
<g style="mix-blend-mode:soft-light" opacity="0.5">
<path d="M247.881 358.615L343.89 303.55L368.103 317.661L271.883 372.324L247.881 358.615Z" fill="#050505"/>
</g>
<g style="mix-blend-mode:soft-light" opacity="0.5">
<path d="M286.416 391.996L392.106 330.987L416.3 345.099L309.095 406.223L286.416 391.996Z" fill="#050505"/>
</g>
<path opacity="0.6" d="M42.0421 268.003L0 291.758L42.4447 316.3L83.3174 293.331L42.0421 268.003Z" fill="#DAE1E5"/>
<path d="M4.02734 164.237L4.35325 284.415L38.171 304.45L39.8197 184.925L4.02734 164.237Z" fill="white"/>
<path d="M74.2882 165.542L39.8186 184.926L38.1699 304.451L74.6141 282.786L74.2882 165.542Z" fill="#F45350"/>
<path d="M39.4938 144.202L4.02734 164.238L39.8197 184.926L74.2893 165.542L39.4938 144.202Z" fill="#FF8381"/>
<g style="mix-blend-mode:soft-light" opacity="0.5">
<path d="M244.449 239.799C244.449 244.592 237.049 248.465 227.904 248.465C218.76 248.465 211.379 244.63 211.379 239.799C211.379 234.967 218.779 231.113 227.904 231.113C237.03 231.113 244.449 235.005 244.449 239.799Z" fill="#050505"/>
</g>
<path d="M241.958 147.308C243.456 144.43 244.571 141.368 245.274 138.2C246.104 134.494 246.515 130.706 246.501 126.908C246.515 121.734 245.871 116.58 244.584 111.569C243.4 106.876 241.595 102.363 239.216 98.1478C237.171 94.4709 234.513 91.1704 231.356 88.3887C228.7 86.0381 225.474 84.425 222.001 83.7104C218.94 83.1447 215.778 83.61 213.009 85.0334C210.146 86.5702 207.724 88.8143 205.974 91.5522C203.875 94.7626 202.344 98.3103 201.449 102.04C200.363 106.428 199.867 110.942 199.973 115.461C200.029 119.138 200.42 122.803 201.143 126.409C201.817 129.86 202.805 133.242 204.095 136.513C205.285 139.577 206.781 142.513 208.562 145.275C210.184 147.801 212.116 150.114 214.313 152.159V159.003L214.907 221.278C214.939 223.264 215.202 225.239 215.693 227.164C216.174 229.055 216.862 230.888 217.745 232.628C218.556 234.237 219.574 235.732 220.774 237.076C221.853 238.27 223.155 239.241 224.608 239.933L231.145 242.982V230.347L239.561 234.181C239.899 234.325 240.253 234.428 240.616 234.488C240.952 234.546 241.296 234.546 241.632 234.488C241.946 234.432 242.25 234.329 242.533 234.181C242.83 234.017 243.101 233.811 243.338 233.568C243.596 233.308 243.821 233.019 244.009 232.705C244.213 232.352 244.38 231.98 244.507 231.593C244.654 231.157 244.757 230.707 244.814 230.251C244.893 229.743 244.931 229.23 244.929 228.717C244.93 227.624 244.795 226.536 244.527 225.477C244.252 224.438 243.86 223.435 243.357 222.486C242.913 221.605 242.337 220.797 241.651 220.089C241.068 219.448 240.356 218.938 239.561 218.593L233.58 216.12L231.088 215.085V211.02L233.58 212.036L239.561 214.49C239.908 214.64 240.277 214.731 240.654 214.759C240.984 214.817 241.321 214.817 241.651 214.759C241.975 214.686 242.285 214.563 242.571 214.395C242.875 214.216 243.152 213.997 243.396 213.743C243.647 213.469 243.866 213.166 244.047 212.841C244.258 212.476 244.431 212.091 244.565 211.691C244.707 211.246 244.816 210.791 244.891 210.33C244.891 209.831 244.987 209.294 245.006 208.738C244.994 206.55 244.448 204.398 243.415 202.469C242.957 201.598 242.375 200.797 241.689 200.091C241.094 199.47 240.376 198.981 239.581 198.653L233.542 196.372L231.03 195.413V164.429V157.374C233.318 156.699 235.423 155.512 237.184 153.903C239.143 151.996 240.758 149.764 241.958 147.308ZM216.364 96.9974C216.666 95.8438 217.159 94.7486 217.821 93.7571C218.379 92.9389 219.138 92.2785 220.026 91.8398C220.865 91.4107 221.826 91.2821 222.748 91.4755C223.78 91.7042 224.737 92.1925 225.528 92.8943C226.447 93.7211 227.224 94.6926 227.829 95.7703C228.514 97.0076 229.036 98.3289 229.381 99.7008C229.757 101.187 229.957 102.712 229.976 104.245C229.99 105.689 229.803 107.128 229.42 108.52C229.113 109.686 228.593 110.784 227.886 111.761C227.313 112.587 226.533 113.248 225.624 113.678C224.767 114.053 223.81 114.134 222.902 113.908C221.878 113.645 220.936 113.131 220.16 112.413C219.273 111.581 218.528 110.61 217.955 109.537C217.291 108.328 216.782 107.039 216.441 105.702C216.073 104.261 215.88 102.78 215.866 101.292C215.838 99.8447 216.006 98.4001 216.364 96.9974Z" fill="#EAA306"/>
<path d="M212.012 152.888L212.683 221.911C212.713 223.904 212.977 225.886 213.469 227.817C213.95 229.708 214.638 231.54 215.52 233.281C216.336 234.881 217.354 236.369 218.549 237.71C219.587 238.9 220.851 239.871 222.268 240.567L228.825 243.634V231.095L227.464 230.501C226.733 230.132 226.082 229.624 225.546 229.005C224.908 228.301 224.367 227.514 223.936 226.666C223.459 225.754 223.092 224.789 222.843 223.79C222.579 222.762 222.437 221.707 222.422 220.646C222.392 220.148 222.392 219.648 222.422 219.15C222.493 218.711 222.589 218.275 222.709 217.847C222.832 217.47 222.986 217.105 223.169 216.754C223.336 216.435 223.542 216.139 223.783 215.872C224.005 215.636 224.256 215.43 224.53 215.258C224.802 215.107 225.092 214.991 225.393 214.913C225.711 214.865 226.034 214.865 226.352 214.913C226.709 214.948 227.058 215.039 227.387 215.181L228.748 215.738V211.692L227.387 211.136C226.626 210.806 225.941 210.323 225.374 209.717C224.728 209.022 224.179 208.241 223.744 207.397C222.76 205.529 222.24 203.45 222.23 201.338C222.221 200.832 222.253 200.325 222.326 199.824C222.377 199.368 222.473 198.918 222.613 198.482C222.716 198.086 222.871 197.706 223.073 197.35C223.239 197.02 223.445 196.711 223.687 196.43C223.905 196.166 224.164 195.94 224.454 195.759C224.718 195.585 225.01 195.455 225.316 195.376C225.634 195.328 225.957 195.328 226.275 195.376C226.636 195.399 226.991 195.477 227.329 195.606L228.691 196.123V165.14C228.029 165.307 227.356 165.429 226.678 165.504C225.989 165.561 225.296 165.561 224.607 165.504C223.893 165.482 223.181 165.405 222.479 165.274C221.751 165.147 221.034 164.967 220.332 164.737C219.596 164.486 218.873 164.198 218.166 163.874C217.456 163.529 216.766 163.146 216.076 162.724C215.412 162.292 214.772 161.825 214.159 161.324C213.489 160.818 212.849 160.274 212.242 159.694V152.85" fill="#FFCA00"/>
<path d="M237.221 219.304L231.24 216.811V232.265L228.767 231.172V215.833L227.406 215.277C227.077 215.134 226.727 215.044 226.37 215.009C226.053 214.961 225.73 214.961 225.412 215.009C225.111 215.087 224.821 215.203 224.549 215.354C224.275 215.526 224.024 215.732 223.801 215.967C223.56 216.234 223.354 216.531 223.188 216.849C223.005 217.2 222.851 217.566 222.728 217.942C222.608 218.371 222.512 218.806 222.44 219.246C222.411 219.744 222.411 220.243 222.44 220.741C222.456 221.803 222.598 222.858 222.862 223.886C223.11 224.885 223.477 225.85 223.955 226.762C224.385 227.61 224.927 228.396 225.565 229.101C226.101 229.72 226.752 230.228 227.482 230.597L228.843 231.191L237.26 234.91C237.593 235.069 237.949 235.179 238.314 235.236C238.651 235.285 238.993 235.285 239.33 235.236C239.647 235.183 239.953 235.072 240.231 234.91C240.528 234.754 240.799 234.553 241.036 234.316C241.29 234.053 241.515 233.764 241.707 233.453C241.903 233.097 242.07 232.725 242.206 232.341C242.341 231.902 242.444 231.454 242.512 230.999C242.591 230.492 242.629 229.979 242.627 229.465C242.628 228.373 242.493 227.284 242.225 226.225C241.957 225.184 241.564 224.18 241.055 223.234C240.606 222.351 240.031 221.537 239.349 220.818C238.76 220.189 238.049 219.687 237.26 219.342" fill="#FFCA00"/>
<path d="M237.239 199.325L231.2 197.043V212.746L228.708 211.73V196.085L227.347 195.567C227.009 195.438 226.654 195.36 226.293 195.337C225.975 195.289 225.652 195.289 225.334 195.337C225.028 195.417 224.736 195.546 224.471 195.72C224.181 195.901 223.922 196.128 223.705 196.391C223.463 196.672 223.257 196.981 223.091 197.312C222.889 197.667 222.734 198.047 222.631 198.443C222.491 198.88 222.394 199.329 222.343 199.785C222.271 200.287 222.239 200.793 222.248 201.3C222.258 203.412 222.778 205.49 223.762 207.358C224.197 208.202 224.745 208.983 225.392 209.678C225.958 210.284 226.643 210.767 227.405 211.097L228.766 211.653L237.239 215.124C237.592 215.256 237.958 215.346 238.332 215.392C238.663 215.441 238.998 215.441 239.329 215.392C239.653 215.319 239.963 215.196 240.249 215.028C240.553 214.849 240.83 214.63 241.073 214.376C241.321 214.099 241.54 213.797 241.725 213.475C241.936 213.109 242.109 212.724 242.243 212.324C242.39 211.875 242.492 211.413 242.55 210.944C242.629 210.424 242.667 209.898 242.665 209.372C242.675 208.266 242.54 207.163 242.262 206.093C241.986 205.055 241.594 204.052 241.093 203.102C240.635 202.231 240.053 201.43 239.367 200.725C238.772 200.103 238.054 199.614 237.258 199.287" fill="#FFCA00"/>
<path d="M212.011 152.888V159.732C212.619 160.312 213.259 160.856 213.928 161.362C214.542 161.863 215.182 162.33 215.846 162.762C216.536 163.184 217.226 163.567 217.935 163.912C218.642 164.236 219.365 164.524 220.102 164.775C220.803 165.005 221.521 165.185 222.249 165.312C222.951 165.443 223.663 165.52 224.377 165.542C225.066 165.599 225.758 165.599 226.447 165.542C227.126 165.467 227.798 165.345 228.46 165.178V158.122C227.801 158.311 227.128 158.446 226.447 158.525C225.755 158.621 225.056 158.659 224.358 158.64C223.644 158.615 222.934 158.545 222.23 158.429C221.496 158.307 220.773 158.134 220.063 157.911C219.331 157.675 218.614 157.393 217.916 157.067C217.196 156.742 216.498 156.371 215.826 155.955C215.165 155.528 214.525 155.067 213.909 154.575C213.238 154.076 212.606 153.54 211.992 152.964" fill="#FFB500"/>
<path d="M220.734 114.618C219.717 114.351 218.782 113.837 218.011 113.123C217.133 112.283 216.389 111.313 215.807 110.247C215.142 109.038 214.633 107.749 214.292 106.412C213.923 104.964 213.73 103.477 213.717 101.983C213.698 100.568 213.865 99.1556 214.216 97.7841C214.514 96.6291 215.006 95.5334 215.673 94.5438C216.23 93.7256 216.99 93.0652 217.877 92.6265C218.721 92.2126 219.679 92.0912 220.6 92.2814C221.635 92.5017 222.594 92.9911 223.379 93.7002C224.298 94.527 225.075 95.4984 225.68 96.5762C226.366 97.8135 226.888 99.1347 227.233 100.507C227.608 101.993 227.808 103.518 227.827 105.051C227.832 106.494 227.645 107.932 227.271 109.326C226.96 110.49 226.44 111.588 225.737 112.567C225.164 113.392 224.384 114.054 223.475 114.484C222.611 114.859 221.648 114.94 220.734 114.714M219.833 84.5354C216.772 83.9593 213.607 84.4251 210.842 85.8584C207.978 87.3952 205.556 89.6394 203.806 92.3772C201.704 95.5857 200.173 99.1341 199.281 102.865C198.197 107.254 197.694 111.766 197.786 116.286C197.848 119.964 198.246 123.629 198.975 127.234C199.654 130.684 200.642 134.065 201.927 137.338C203.125 140.398 204.621 143.333 206.394 146.1C208.016 148.626 209.948 150.939 212.145 152.984C212.778 153.559 213.41 154.096 214.062 154.594C214.678 155.086 215.317 155.547 215.979 155.975C216.651 156.39 217.349 156.762 218.069 157.087C218.766 157.412 219.483 157.694 220.216 157.93C220.925 158.153 221.649 158.326 222.382 158.448C223.087 158.564 223.797 158.634 224.51 158.659C225.209 158.678 225.908 158.64 226.6 158.544C227.281 158.465 227.954 158.33 228.613 158.141C230.904 157.463 233.009 156.269 234.767 154.652C236.792 152.802 238.473 150.608 239.732 148.171C241.234 145.295 242.349 142.232 243.049 139.064C243.879 135.364 244.291 131.582 244.276 127.79C244.295 122.585 243.651 117.398 242.359 112.356C241.17 107.662 239.358 103.148 236.972 98.9345C234.939 95.2601 232.286 91.9649 229.131 89.1945C226.475 86.8439 223.249 85.2309 219.775 84.5163" fill="#FFCA00"/>
<path d="M231.22 197.044L228.689 196.104L228.747 211.75L231.239 212.766L231.22 197.044Z" fill="#FFB500"/>
<path d="M231.24 216.83L228.748 215.795L228.806 231.172L231.279 232.265L231.24 216.83Z" fill="#FFB500"/>
<path d="M231.088 242.942L228.826 243.709V237.977L231.088 242.942Z" fill="#EAA306"/>
<g style="mix-blend-mode:soft-light" opacity="0.5">
<path d="M529.275 382.888L475.615 392.915H475.596L492.984 361.932L529.275 382.888Z" fill="#050505"/>
</g>
<g filter="url(#filter0_d_51833_3697)">
<path d="M588.264 366.916L472.777 388.467L511.043 320.287L539.914 337.696L540.259 355.757L556.248 347.57L588.264 366.916Z" fill="white"/>
</g>
<path d="M539.914 337.678L472.777 388.467L540.259 355.777L539.914 337.678Z" fill="#DB2512"/>
<g style="mix-blend-mode:soft-light" opacity="0.5">
<path d="M299.471 357.389V428.847C299.478 433.485 299.151 438.118 298.493 442.709C297.794 447.422 296.691 452.066 295.196 456.59L145.662 370.311C145.368 366.477 145.221 362.642 145.221 358.807V287.196H145.585L162.11 278.146C162.11 278.146 188.95 271.8 230.82 296.015C272.689 320.231 299.471 357.389 299.471 357.389Z" fill="#050505"/>
</g>
<path opacity="0.6" d="M258.025 525.307C256.664 538.46 230.035 546.512 198.499 543.291C166.962 540.07 142.519 526.783 143.88 513.63C145.242 500.478 171.87 492.425 203.311 495.646C234.751 498.867 259.367 512.192 258.025 525.307Z" fill="#DAE1E5"/>
<path d="M202.944 315.916C160.998 291.681 134.254 298.027 134.254 298.027L117.441 307.23C129.423 308.457 164.027 312.349 186.036 325.042C228.001 349.277 254.725 386.492 254.725 386.492V457.95C254.725 489.356 232.084 514.664 219.585 524.711C242.226 516.601 271.634 493.804 271.634 448.824V377.366C271.634 377.366 244.91 340.151 202.944 315.916Z" fill="#F45350"/>
<path d="M254.726 457.951V386.492C254.726 386.492 228.001 349.22 186.036 325.043C164.028 312.35 146.218 308.055 134.274 306.828C128.653 306.089 122.952 306.205 117.365 307.173V378.612C117.365 460.251 186.055 529.447 186.055 529.447C186.055 529.447 212.07 533.282 232.066 517.215C244.565 507.168 254.726 489.356 254.726 457.951Z" fill="#F9BEBD"/>
<path opacity="0.79" d="M131.993 325.33C131.993 325.33 109.658 452.237 186.036 510.926C186.036 510.926 260.132 530.866 240.098 387.757C240.098 387.757 194.893 318.887 131.993 325.33Z" fill="#DB2512"/>
<path d="M186.036 518.423L184.771 517.004C174.457 505.293 165.145 492.735 156.935 479.463C136.498 446.428 126.127 414.275 126.127 383.693V317.891H127.661C131.767 317.745 135.878 317.951 139.949 318.505C149.976 319.808 166.118 323.777 185.96 335.262C203.183 345.507 218.943 358.032 232.814 372.496C236.916 376.734 240.789 381.047 244.316 385.304L245.85 387.221V453.023C245.85 483.854 235.287 504.197 214.467 513.515C205.855 517.165 196.555 518.905 187.206 518.615L186.036 518.423ZM131.993 325.33V387.068C131.993 415.597 141.694 445.738 160.75 476.702C168.223 488.762 176.647 500.207 185.941 510.926C194.401 511.03 202.791 509.371 210.575 506.056C230.092 497.333 240.003 478.294 240.003 449.496V387.758C237.07 384.326 233.945 380.875 230.647 377.481C217.417 363.674 202.378 351.723 185.941 341.953C166.923 330.986 151.529 327.19 141.981 325.944C138.671 325.498 135.333 325.293 131.993 325.33Z" fill="white"/>
<g style="mix-blend-mode:soft-light" opacity="0.5">
<path d="M220.986 393.414C220.524 393.245 220.039 393.148 219.548 393.127C219.086 393.09 218.621 393.123 218.168 393.223C217.724 393.316 217.297 393.478 216.903 393.702C216.493 393.935 216.124 394.232 215.81 394.584L186.095 426.948L175.206 406.567C174.897 405.991 174.544 405.44 174.151 404.918C173.784 404.434 173.38 403.979 172.943 403.557C172.534 403.18 172.091 402.839 171.621 402.541C171.193 402.268 170.736 402.043 170.259 401.87C169.941 401.76 169.614 401.676 169.282 401.62C168.963 401.582 168.642 401.582 168.323 401.62C168.011 401.64 167.702 401.698 167.403 401.793C167.109 401.906 166.827 402.048 166.559 402.215C165.911 402.665 165.395 403.281 165.064 403.998C164.701 404.795 164.493 405.654 164.451 406.529C164.401 407.533 164.491 408.54 164.719 409.52C164.961 410.599 165.355 411.638 165.889 412.607L181.379 441.654C181.677 442.199 182.01 442.724 182.376 443.226C182.718 443.701 183.103 444.144 183.526 444.549C183.915 444.944 184.339 445.303 184.791 445.623C185.222 445.912 185.677 446.163 186.152 446.371H186.229C186.654 446.539 187.098 446.655 187.552 446.716C187.965 446.773 188.385 446.773 188.798 446.716C189.189 446.658 189.566 446.528 189.91 446.332C190.279 446.153 190.61 445.906 190.888 445.604L226.143 408.791C226.784 408.114 227.252 407.292 227.504 406.395C227.785 405.404 227.889 404.372 227.811 403.346C227.746 402.219 227.513 401.107 227.121 400.048C226.712 398.913 226.144 397.841 225.434 396.866C225.089 396.418 224.744 396.016 224.399 395.658C224.05 395.294 223.672 394.961 223.267 394.661C222.899 394.374 222.508 394.118 222.098 393.894C221.722 393.683 221.323 393.516 220.909 393.395" fill="#050505"/>
</g>
<path d="M217.517 393.874C217.053 393.714 216.569 393.617 216.079 393.586C215.623 393.551 215.164 393.583 214.718 393.682C214.272 393.769 213.844 393.931 213.453 394.161C213.037 394.394 212.662 394.692 212.341 395.043L182.626 427.408L171.736 407.027C171.428 406.451 171.075 405.9 170.682 405.378C170.315 404.894 169.911 404.439 169.474 404.016C169.067 403.644 168.631 403.304 168.171 403C167.741 402.731 167.285 402.506 166.809 402.329C166.487 402.216 166.152 402.139 165.813 402.099C165.495 402.051 165.172 402.051 164.854 402.099C164.547 402.118 164.245 402.176 163.953 402.272C163.651 402.381 163.362 402.523 163.09 402.694C162.442 403.139 161.931 403.757 161.614 404.477C161.242 405.278 161.028 406.144 160.981 407.027C160.933 408.025 161.023 409.025 161.25 409.998C161.509 411.072 161.902 412.109 162.419 413.085L177.909 442.133C178.208 442.677 178.541 443.203 178.906 443.705C179.259 444.171 179.644 444.613 180.057 445.028C180.453 445.422 180.882 445.782 181.341 446.101C181.767 446.398 182.223 446.649 182.702 446.849H182.836C183.262 447.015 183.706 447.131 184.159 447.194C184.572 447.262 184.993 447.262 185.405 447.194C185.803 447.136 186.186 447.006 186.536 446.811C186.896 446.626 187.221 446.38 187.495 446.082L222.77 409.27C223.404 408.591 223.865 407.769 224.112 406.873C224.399 405.884 224.51 404.852 224.438 403.825C224.356 402.698 224.117 401.588 223.728 400.527C223.324 399.396 222.755 398.33 222.041 397.363C221.732 396.926 221.385 396.515 221.006 396.136C220.659 395.778 220.288 395.445 219.894 395.139C219.522 394.863 219.131 394.613 218.725 394.392C218.341 394.179 217.936 394.005 217.517 393.874Z" fill="white"/>
<mask id="mask3_51833_3697" style="mask-type:luminance" maskUnits="userSpaceOnUse" x="331" y="0" width="149" height="137">
<path d="M331 53.0904L332.208 0L479.058 83.1156L477.85 136.206L331 53.0904Z" fill="white"/>
</mask>
<g mask="url(#mask3_51833_3697)">
<path d="M345.665 59.6285C338.112 55.372 332.246 40.7621 332.533 27.0341C332.821 13.3062 339.243 5.67524 346.797 9.95085L464.392 76.5008C471.945 80.7765 477.812 95.3864 477.505 109.095C477.198 122.804 470.814 130.454 463.261 126.178L345.665 59.6093M464.43 74.8136L346.835 8.26364C338.764 3.68125 331.939 11.8682 331.498 26.5164C331.057 41.1647 337.46 56.7717 345.531 61.3349L463.222 127.962C471.293 132.525 478.118 124.319 478.559 109.69C479 95.0604 472.597 79.4343 464.526 74.8711" fill="#333333"/>
<path d="M367.329 38.768L365.968 37.9819L362.498 51.7674L359.738 34.4541L358.357 33.668L361.693 53.8189L363.189 54.6626L367.329 38.768Z" fill="#333333"/>
<path d="M374.097 42.5836L368.768 39.5542L368.365 57.5961L373.695 60.6063L373.733 58.6698L369.688 56.3882L369.841 50.1761L373.446 52.2276L373.484 50.2912L369.88 48.2396L370.014 42.2193L374.059 44.52L374.097 42.5836Z" fill="#333333"/>
<path d="M377.144 53.1865L377.297 46.3417L379.214 47.4346C379.941 47.9333 380.516 48.6237 380.875 49.4291C381.233 50.2346 381.362 51.1237 381.246 51.9978C381.246 54.011 380.537 55.1038 379.061 54.2602L377.144 53.1865ZM379.253 45.5172L376.051 43.6958L375.648 61.7185L376.933 62.4471L377.144 55.1038L378.716 56.005L380.978 64.6904L382.531 65.5724L380.211 56.6185C381.898 56.8869 382.646 55.0846 382.703 52.7839C382.835 51.3891 382.595 49.9844 382.009 48.7118C381.424 47.4392 380.512 46.3438 379.368 45.5364" fill="#333333"/>
<path d="M386.04 49.3321L384.736 48.6035L384.314 66.6263L385.618 67.3548L386.04 49.3321Z" fill="#333333"/>
<path d="M393.844 53.7612L388.246 50.5977L387.824 68.6012L389.128 69.349L389.32 61.2388L392.809 63.2136L392.866 61.2963L389.358 59.3214L389.492 53.2436L393.806 55.6977L393.844 53.7612Z" fill="#333333"/>
<path d="M396.718 55.3917L395.414 54.6631L395.012 72.6667L396.315 73.4144L396.718 55.3917Z" fill="#333333"/>
<path d="M403.409 58.9385C400.63 57.3663 398.348 59.9547 398.233 65.3615C398.118 70.7683 400.15 75.7725 402.988 77.3447C405.135 78.5526 406.822 77.5939 407.704 74.5454L406.151 73.6634C405.557 75.5807 404.483 76.1176 403.026 75.2932C400.955 74.1236 399.46 70.4999 399.556 66.1092C399.652 61.7186 401.281 59.8204 403.39 61.0092C404.216 61.6023 404.908 62.3632 405.42 63.242C405.932 64.1208 406.253 65.0979 406.362 66.1092L407.915 66.9912C407.244 63.1566 405.595 60.1464 403.448 58.9385" fill="#333333"/>
<path d="M411.653 76.0407L413.57 67.9688L415.161 78.0731L411.653 76.0407ZM414.471 65.4955L412.976 64.6519L408.988 80.5272L410.349 81.2942L411.231 77.7471L415.564 80.1821L416.273 84.6495L417.634 85.4164L414.471 65.4955Z" fill="#333333"/>
<path d="M425.648 71.7647L418.919 67.9492L418.861 69.8665L421.603 71.4196L421.219 87.5058L422.523 88.2344L422.887 72.1481L425.59 73.682L425.648 71.7647Z" fill="#333333"/>
<path d="M428.523 73.3946L427.238 72.666L426.816 90.6696L428.12 91.4173L428.523 73.3946Z" fill="#333333"/>
<path d="M434.869 93.4498C432.78 92.2611 431.284 88.599 431.38 84.2083C431.476 79.8177 433.106 77.9387 435.214 79.1275C437.323 80.3162 438.819 83.9208 438.704 88.3497C438.589 92.7787 436.978 94.6194 434.869 93.4498ZM435.253 77.0951C432.454 75.5038 430.172 78.0538 430.057 83.4606C429.942 88.8674 431.975 93.8908 434.831 95.4822C437.688 97.0735 439.892 94.5043 440.026 89.0975C440.161 83.6907 438.109 78.6673 435.253 77.0951Z" fill="#333333"/>
<path d="M449.746 85.3781L448.442 84.6495L448.116 98.9718L443.228 81.6968L441.943 80.9683L441.521 99.0102L442.825 99.7388L443.151 85.3973L448.02 102.672L449.324 103.42L449.746 85.3781Z" fill="#333333"/>
</g>
<defs>
<filter id="filter0_d_51833_3697" x="468.777" y="320.287" width="123.486" height="76.1797" filterUnits="userSpaceOnUse" color-interpolation-filters="sRGB">
<feFlood flood-opacity="0" result="BackgroundImageFix"/>
<feColorMatrix in="SourceAlpha" type="matrix" values="0 0 0 0 0 0 0 0 0 0 0 0 0 0 0 0 0 0 127 0" result="hardAlpha"/>
<feOffset dy="4"/>
<feGaussianBlur stdDeviation="2"/>
<feComposite in2="hardAlpha" operator="out"/>
<feColorMatrix type="matrix" values="0 0 0 0 0 0 0 0 0 0 0 0 0 0 0 0 0 0 0.25 0"/>
<feBlend mode="normal" in2="BackgroundImageFix" result="effect1_dropShadow_51833_3697"/>
<feBlend mode="normal" in="SourceGraphic" in2="effect1_dropShadow_51833_3697" result="shape"/>
</filter>
</defs>
</svg>
