<svg width="25" height="25" viewBox="0 0 25 25" fill="none" xmlns="http://www.w3.org/2000/svg">
<path d="M2.49972 5.00014H0V22.5003C0.00165409 23.1627 0.265548 23.7976 0.733979 24.266C1.20241 24.7345 1.83726 24.9983 2.49972 25H19.9999V22.5003H2.49972V5.00014ZM22.5003 0H7.49986C6.8374 0.00165409 6.20255 0.265548 5.73412 0.733979C5.26569 1.20241 5.00179 1.83726 5.00014 2.49972V17.5001C5.00179 18.1626 5.26569 18.7975 5.73412 19.2659C6.20255 19.7343 6.8374 19.9982 7.49986 19.9999H22.5003C23.1627 19.9982 23.7976 19.7343 24.266 19.2659C24.7345 18.7975 24.9983 18.1626 25 17.5001V2.49972C24.9983 1.83726 24.7345 1.20241 24.266 0.733979C23.7976 0.265548 23.1627 0.00165409 22.5003 0ZM21.2473 11.2498H16.2499V16.2499H13.7502V11.2498H8.75007V8.75007H13.7502V3.74993H16.2499V8.75007H21.2501L21.2473 11.2498Z" fill="#DB2512"/>
</svg>
