<svg width="217" height="227" viewBox="0 0 217 227" fill="none" xmlns="http://www.w3.org/2000/svg">
<g clip-path="url(#clip0_52596_8951)">
<path d="M1.58917 86.0673L211.108 84.541L216.946 227L0 224.986L1.58917 86.0673Z" fill="#DB2512"/>
<path d="M1.58789 86.0671L107.968 0L211.107 84.5409" fill="#E8505B"/>
<g opacity="0.3">
<path d="M1.58789 86.0671L107.968 0L211.107 84.5409" fill="#4B0D06"/>
</g>
<path d="M-0.000750951 224.986C-0.268236 224.734 16.5046 206.419 37.4628 184.092C58.421 161.749 75.6187 143.828 75.8705 144.08C76.138 144.332 59.3651 162.631 38.4069 184.989C17.4644 207.316 0.266734 225.222 -0.000750951 224.986Z" fill="#263238"/>
<path d="M216.945 227C216.678 227.236 200.346 209.299 180.457 186.925C160.569 164.55 144.677 146.22 144.945 145.984C145.212 145.748 161.545 163.685 181.433 186.059C201.305 208.434 217.213 226.764 216.945 227Z" fill="#263238"/>
<g opacity="0.5">
<path d="M211.107 84.541L105.907 168.594L1.58789 86.0673" fill="black"/>
</g>
<path d="M12.1466 93.8558L11.8477 32.9008L195.342 28.4165L197.34 95.0988L105.892 167.493L12.1466 93.8558Z" fill="#EBEBEB"/>
<path d="M108.456 145.606C106.726 145.606 104.979 145.512 103.233 145.307C91.117 143.938 80.2603 137.928 72.6606 128.393C65.0609 118.858 61.6308 106.931 63.0154 94.8155C65.8476 69.7978 88.5051 51.7505 113.523 54.5984C125.638 55.9673 136.495 61.9778 144.095 71.5129C151.694 81.0479 155.125 92.9746 153.74 105.09C152.371 117.206 146.36 128.062 136.825 135.662C128.659 142.16 118.762 145.606 108.472 145.606H108.456ZM108.33 55.8729C86.2236 55.8729 67.1064 72.5199 64.5731 94.9886C63.2515 106.695 66.5557 118.197 73.8879 127.417C81.2201 136.622 91.6992 142.428 103.406 143.749C115.096 145.087 126.614 141.767 135.834 134.435C145.039 127.102 150.845 116.623 152.166 104.917C153.488 93.2263 150.184 81.7088 142.852 72.4884C135.519 63.2838 125.04 57.4778 113.334 56.1561C111.65 55.9673 109.983 55.8729 108.346 55.8729H108.33Z" fill="#DB2512"/>
<path d="M77.334 106.286L84.9652 96.9396L102.808 109.826L131.806 75.6353L140.555 83.3294L103.264 126.316L77.334 106.286Z" fill="#DB2512"/>
</g>
<defs>
<clipPath id="clip0_52596_8951">
<rect width="216.961" height="227" fill="white"/>
</clipPath>
</defs>
</svg>
