<svg width="54" height="52" viewBox="0 0 54 52" fill="none" xmlns="http://www.w3.org/2000/svg">
<g filter="url(#filter0_d_51414_3957)">
<path d="M40 3H14C9.58172 3 6 6.58172 6 11V35C6 39.4183 9.58172 43 14 43H40C44.4183 43 48 39.4183 48 35V11C48 6.58172 44.4183 3 40 3Z" fill="white"/>
</g>
<path d="M22.1134 24.3996V13.4716C22.1134 13.3433 22.0881 13.2162 22.039 13.0976C21.9899 12.979 21.9179 12.8712 21.8271 12.7804C21.7363 12.6897 21.6286 12.6177 21.51 12.5685C21.3914 12.5194 21.2643 12.4941 21.1359 12.4941C21.0076 12.4941 20.8804 12.5194 20.7618 12.5685C20.6433 12.6177 20.5355 12.6897 20.4447 12.7804C20.354 12.8712 20.282 12.979 20.2328 13.0976C20.1837 13.2162 20.1584 13.3433 20.1584 13.4716V24.3996C19.5921 24.6049 19.1028 24.9796 18.7569 25.4728C18.4111 25.966 18.2256 26.5538 18.2256 27.1561C18.2256 27.7585 18.4111 28.3463 18.7569 28.8395C19.1028 29.3327 19.5921 29.7074 20.1584 29.9126V31.0656C20.1584 31.194 20.1837 31.3211 20.2328 31.4397C20.282 31.5583 20.354 31.6661 20.4447 31.7568C20.5355 31.8476 20.6433 31.9196 20.7618 31.9687C20.8804 32.0179 21.0076 32.0431 21.1359 32.0431C21.2643 32.0431 21.3914 32.0179 21.51 31.9687C21.6286 31.9196 21.7363 31.8476 21.8271 31.7568C21.9179 31.6661 21.9899 31.5583 22.039 31.4397C22.0881 31.3211 22.1134 31.194 22.1134 31.0656V29.9126C22.6797 29.7074 23.1691 29.3327 23.5149 28.8395C23.8607 28.3463 24.0463 27.7585 24.0463 27.1561C24.0463 26.5538 23.8607 25.966 23.5149 25.4728C23.1691 24.9796 22.6797 24.6049 22.1134 24.3996Z" fill="#DB2512"/>
<path d="M35.7969 23.2466C35.7944 22.6424 35.6052 22.0537 35.2552 21.5611C34.9053 21.0684 34.4117 20.696 33.8419 20.4946V13.4716C33.8419 13.2124 33.739 12.9638 33.5556 12.7804C33.3723 12.5971 33.1237 12.4941 32.8644 12.4941C32.6052 12.4941 32.3566 12.5971 32.1732 12.7804C31.9899 12.9638 31.8869 13.2124 31.8869 13.4716V20.4946C31.3206 20.6999 30.8313 21.0746 30.4855 21.5678C30.1396 22.061 29.9541 22.6488 29.9541 23.2511C29.9541 23.8535 30.1396 24.4413 30.4855 24.9345C30.8313 25.4277 31.3206 25.8024 31.8869 26.0076V31.0706C31.8869 31.3299 31.9899 31.5785 32.1732 31.7618C32.3566 31.9452 32.6052 32.0481 32.8644 32.0481C33.1237 32.0481 33.3723 31.9452 33.5556 31.7618C33.739 31.5785 33.8419 31.3299 33.8419 31.0706V26.0026C34.4123 25.8011 34.9064 25.428 35.2564 24.9346C35.6064 24.4412 35.7952 23.8516 35.7969 23.2466Z" fill="#DB2512"/>
<path d="M29.9333 15.4274C29.9348 14.8895 29.7883 14.3617 29.5099 13.9015C29.2315 13.4413 28.8318 13.0666 28.3547 12.8183C27.8776 12.5701 27.3414 12.4578 26.8048 12.4939C26.2681 12.53 25.7517 12.7129 25.3121 13.0228C24.8725 13.3327 24.5266 13.7575 24.3123 14.2508C24.0979 14.744 24.0234 15.2868 24.0968 15.8196C24.1702 16.3524 24.3888 16.8547 24.7286 17.2716C25.0684 17.6886 25.5163 18.004 26.0233 18.1834V31.0664C26.0233 31.3256 26.1263 31.5743 26.3096 31.7576C26.4929 31.9409 26.7416 32.0439 27.0008 32.0439C27.2601 32.0439 27.5087 31.9409 27.692 31.7576C27.8753 31.5743 27.9783 31.3256 27.9783 31.0664V18.1834C28.5487 17.9818 29.0428 17.6087 29.3928 17.1153C29.7428 16.6219 29.9316 16.0323 29.9333 15.4274Z" fill="#DB2512"/>
<defs>
<filter id="filter0_d_51414_3957" x="0" y="0" width="54" height="52" filterUnits="userSpaceOnUse" color-interpolation-filters="sRGB">
<feFlood flood-opacity="0" result="BackgroundImageFix"/>
<feColorMatrix in="SourceAlpha" type="matrix" values="0 0 0 0 0 0 0 0 0 0 0 0 0 0 0 0 0 0 127 0" result="hardAlpha"/>
<feOffset dy="3"/>
<feGaussianBlur stdDeviation="3"/>
<feColorMatrix type="matrix" values="0 0 0 0 0 0 0 0 0 0 0 0 0 0 0 0 0 0 0.059 0"/>
<feBlend mode="normal" in2="BackgroundImageFix" result="effect1_dropShadow_51414_3957"/>
<feBlend mode="normal" in="SourceGraphic" in2="effect1_dropShadow_51414_3957" result="shape"/>
</filter>
</defs>
</svg>
