<svg width="17" height="13" viewBox="0 0 17 13" fill="none" xmlns="http://www.w3.org/2000/svg">
<path d="M1.34191 7.82061C0.886031 6.99836 0.886031 6.00165 1.34191 5.17939C2.72228 2.68963 5.41022 1 8.5 1C11.5898 1 14.2777 2.68963 15.6581 5.17939C16.114 6.00165 16.114 6.99836 15.6581 7.82062C14.2777 10.3104 11.5898 12 8.5 12C5.41022 12 2.72228 10.3104 1.34191 7.82061Z" stroke="#DB2512" stroke-width="1.3"/>
<path d="M10.7592 6.46706C10.7592 7.68208 9.75199 8.66706 8.50952 8.66706C7.26705 8.66706 6.25984 7.68208 6.25984 6.46706C6.25984 5.25203 7.26705 4.26706 8.50952 4.26706C9.75199 4.26706 10.7592 5.25203 10.7592 6.46706Z" stroke="#DB2512" stroke-width="1.3"/>
</svg>
