<svg width="12" height="16" viewBox="0 0 12 16" fill="none" xmlns="http://www.w3.org/2000/svg">
<path d="M3.33301 3.66667V2.33333C3.33301 1.97971 3.47348 1.64057 3.72353 1.39052C3.97358 1.14048 4.31272 1 4.66634 1H7.33301C7.68663 1 8.02577 1.14048 8.27582 1.39052C8.52587 1.64057 8.66634 1.97971 8.66634 2.33333V3.66667M10.6663 3.66667V13C10.6663 13.3536 10.5259 13.6928 10.2758 13.9428C10.0258 14.1929 9.68663 14.3333 9.33301 14.3333H2.66634C2.31272 14.3333 1.97358 14.1929 1.72353 13.9428C1.47348 13.6928 1.33301 13.3536 1.33301 13V3.66667H10.6663Z" stroke="#DB2512" stroke-width="1.5" stroke-linecap="round" stroke-linejoin="round"/>
</svg>
