<svg width="44" height="21" viewBox="0 0 44 21" fill="none" xmlns="http://www.w3.org/2000/svg">
<path d="M13.8798 0.16026C13.8798 0.0534196 14.0203 0 14.3032 0C14.5944 0.0149795 14.8805 0.0819881 15.1481 0.197852C15.5208 0.35037 15.8547 0.584252 16.1254 0.882412C16.4819 1.27828 16.7563 1.74096 16.9327 2.24363C17.1772 2.96277 17.2898 3.72018 17.2651 4.47936C17.2567 5.31248 17.1172 6.13908 16.8516 6.92877C16.5688 7.80068 16.2188 8.64937 15.8049 9.46721C15.3865 10.2979 14.9119 11.0991 14.3843 11.8652C13.9105 12.5578 13.3986 13.2236 12.851 13.8595C12.433 14.3534 11.9751 14.8119 11.4819 15.2306C11.2246 15.4932 10.8945 15.6724 10.5341 15.7451C10.2047 15.7419 9.8845 15.6361 9.61809 15.4423C9.32116 15.2331 9.05937 14.978 8.84251 14.6866C8.61659 14.3912 8.43343 14.0655 8.29842 13.7191C8.17254 13.4152 8.1054 13.0903 8.10057 12.7615C8.10489 12.5377 8.13207 12.3149 8.18169 12.0967C8.23446 11.8421 8.30041 11.573 8.37955 11.2894C8.46067 11.0065 8.55168 10.7256 8.6506 10.4446C8.74953 10.1637 8.84845 9.90645 8.94342 9.67892C8.54772 10.349 8.13751 11.0269 7.71279 11.7128C7.28806 12.3987 6.87851 13.02 6.48412 13.5766C6.15607 14.0575 5.79581 14.5156 5.40583 14.9477C5.07739 15.3039 4.81887 15.4819 4.63025 15.4819C4.42502 15.4675 4.22401 15.4166 4.03669 15.3315C3.76522 15.2148 3.51667 15.0506 3.30266 14.8468C3.04335 14.6036 2.82844 14.317 2.66756 14C2.47601 13.6159 2.38222 13.1905 2.39452 12.7615C2.41417 12.41 2.4855 12.0633 2.60623 11.7326C2.74736 11.3039 2.92542 10.8238 3.14042 10.2923C3.35542 9.76069 3.59746 9.20341 3.86654 8.6204C4.13562 8.02684 4.40074 7.46891 4.65795 6.9169C4.91516 6.36489 5.16643 5.84454 5.39396 5.35584C5.62148 4.86715 5.78966 4.4576 5.91629 4.1351C6.10022 3.73927 6.17339 3.30098 6.12799 2.86687C6.06863 2.53053 5.90442 2.36234 5.63336 2.36234C5.3276 2.37487 5.03148 2.4729 4.77864 2.64528C4.45337 2.85186 4.15267 3.0948 3.88236 3.36941C3.57102 3.68598 3.28522 4.02669 3.02764 4.38836C2.76055 4.75787 2.51799 5.14451 2.30153 5.54579C2.10551 5.90903 1.93752 6.28671 1.79899 6.67552C1.67997 6.97798 1.61307 7.29842 1.60114 7.62323C1.32524 7.60265 1.0562 7.52732 0.809728 7.40164C0.597255 7.29937 0.408031 7.15459 0.253764 6.97625C0.0732887 6.75353 -0.0164554 6.47088 0.00248836 6.18484C0.0136702 5.88615 0.0807813 5.5922 0.20034 5.31825C0.35235 4.95054 0.541272 4.59921 0.764214 4.26964C1.01823 3.89095 1.29439 3.52758 1.59125 3.18145C1.8945 2.82442 2.23178 2.49775 2.59831 2.20604C2.93888 1.93103 3.31079 1.69725 3.70628 1.5096C4.05236 1.34142 4.43147 1.25223 4.81623 1.24845C5.19787 1.2204 5.58122 1.27012 5.94307 1.39459C6.30493 1.51906 6.63775 1.7157 6.92138 1.97258C7.15687 2.21112 7.34169 2.4948 7.46477 2.80658C7.58785 3.11836 7.64665 3.4518 7.6376 3.78688C7.59612 4.25599 7.49095 4.71726 7.32499 5.15799C7.11527 5.79112 6.86004 6.49944 6.55931 7.28293C6.25857 8.06643 5.93936 8.87629 5.6017 9.71255C5.26535 10.5462 4.96989 11.3059 4.71532 11.9918C4.46075 12.6777 4.2728 13.2416 4.15145 13.6834C4.02878 14.1266 4.03669 14.3482 4.17123 14.3482C4.30577 14.3482 4.5432 14.2077 4.80436 13.9268C5.12022 13.5752 5.40986 13.2009 5.67095 12.807C5.98752 12.344 6.32386 11.8164 6.67999 11.2241C7.03613 10.6319 7.38831 10.0238 7.73653 9.39994L8.75546 7.57575L9.64184 5.99293C9.90565 5.52996 10.1272 5.15733 10.3066 4.87506C10.4886 4.59411 10.6054 4.45167 10.6588 4.45167C10.7986 4.45897 10.9344 4.50041 11.0545 4.57236C11.2061 4.65696 11.3453 4.76215 11.468 4.88495C11.5948 5.01396 11.7033 5.15976 11.7905 5.31825C11.8719 5.45929 11.9168 5.61844 11.9211 5.78123C11.8771 6.06727 11.8029 6.34782 11.6995 6.61814C11.5518 7.06924 11.3704 7.59685 11.1554 8.20096C10.9404 8.80506 10.7188 9.45666 10.4906 10.1557C10.2611 10.8482 10.0732 11.4827 9.92675 12.0591C9.79664 12.5311 9.70858 13.0138 9.6636 13.5014C9.63788 13.8833 9.71109 14.0752 9.8852 14.0752C10.1883 14.0103 10.4595 13.8426 10.6529 13.6003C11.0412 13.2041 11.3947 12.7752 11.7094 12.3183C12.1381 11.7079 12.5286 11.0716 12.8787 10.4129C13.2911 9.66352 13.6578 8.88983 13.9768 8.0961C14.3036 7.26754 14.5682 6.41573 14.7682 5.54777C14.9658 4.69853 15.0673 3.82979 15.0709 2.95788C15.0929 2.45398 15.0313 1.94992 14.8889 1.46608C14.8024 1.20172 14.6616 0.958411 14.4754 0.751835C14.3581 0.623739 14.2187 0.517839 14.0638 0.439226C14.0077 0.418029 13.9597 0.379647 13.9266 0.329552C13.8936 0.279457 13.8772 0.220213 13.8798 0.16026Z" fill="#DB2512"/>
<path d="M20.3733 6.59836C21.0183 6.59836 21.6831 7.50452 21.6831 8.25042C21.6968 8.46081 21.632 8.66881 21.5011 8.83409C19.4672 11.3132 18.741 12.7041 18.741 13.2482C18.741 13.446 18.8419 13.5509 18.9824 13.5509C19.5265 13.5509 20.8165 12.4825 21.9265 10.781C22.2687 10.2586 22.52 10.0548 22.6328 10.0548C22.7119 10.0548 22.7752 10.1359 22.7752 10.2784C22.7145 10.7826 22.5356 11.2652 22.2529 11.6871C20.9016 13.905 19.39 14.9121 18.2959 14.9121C17.4511 14.9121 16.8654 14.2671 16.8654 13.1196C16.8654 12.1719 17.2275 10.9214 18.1158 9.36038C17.4162 10.0746 16.7818 10.8499 16.2204 11.6772C15.979 12.0215 15.7377 12.1817 15.5754 12.1817C15.4547 12.1817 15.3776 12.1026 15.3776 11.9404C15.4468 11.5117 15.6268 11.1086 15.8999 10.7711C17.5717 8.33352 19.5087 6.61616 20.1517 6.61616C20.2245 6.60089 20.299 6.59491 20.3733 6.59836Z" fill="#DB2512"/>
<path d="M24.5856 6.59839C25.2306 6.59839 25.9151 7.50455 25.9151 8.25045C25.9227 8.46265 25.8524 8.67028 25.7173 8.83411C25.0051 9.70559 24.3696 10.637 23.8179 11.6179C26.4177 8.13174 28.6138 6.6716 29.522 6.63994C29.5937 6.61688 29.6683 6.60357 29.7436 6.60037C30.3886 6.60037 31.0533 7.50653 31.0533 8.25243C31.0671 8.46282 31.0022 8.67082 30.8713 8.83609C28.8354 11.3152 28.1113 12.7061 28.1113 13.2502C28.1113 13.448 28.2122 13.5529 28.3527 13.5529C28.8968 13.5529 30.1867 12.4845 31.2967 10.783C31.639 10.2606 31.8903 10.0568 32.003 10.0568C32.0822 10.0568 32.1455 10.138 32.1455 10.2804C32.0848 10.7846 31.9058 11.2673 31.6232 11.6891C30.2718 13.907 28.7405 14.9141 27.6661 14.9141C26.7995 14.9141 26.2357 14.2889 26.2357 13.1216C26.2357 12.1936 26.5977 10.9452 27.4643 9.41382C25.7321 11.0757 24.1331 12.8711 22.6822 14.7835C22.667 14.813 22.6469 14.8398 22.6229 14.8627C22.5574 14.9428 22.4741 15.0065 22.3796 15.0487C22.2852 15.091 22.1822 15.1106 22.0788 15.106C21.594 15.106 21.0104 14.6411 21.0104 13.5549V13.3313C21.1706 11.2974 22.3953 8.97854 24.0336 6.90308C24.0935 6.81094 24.1753 6.73495 24.2715 6.68182C24.3678 6.62869 24.4756 6.60004 24.5856 6.59839Z" fill="#DB2512"/>
<path d="M39.013 11.0716C38.2473 12.1994 37.9446 12.9057 37.9446 13.248C37.9446 13.4458 38.0455 13.5507 38.2078 13.5507C38.7301 13.5507 40.0221 12.4823 41.1301 10.7808C41.4723 10.2584 41.7236 10.0546 41.8344 10.0546C41.9155 10.0546 41.9769 10.1358 41.9769 10.2782C41.917 10.7826 41.738 11.2655 41.4545 11.6869C40.1052 13.9049 38.5936 14.9119 37.4975 14.9119C36.6507 14.9119 36.0868 14.2669 36.0868 13.1194V12.8978C34.9393 14.3085 33.7126 14.9317 32.7431 14.9317C31.7143 14.9317 30.9882 14.2076 30.9882 12.8978C31.0673 11.6319 31.4766 10.4089 32.1753 9.3503C33.4455 7.2135 35.1431 6.38252 36.4509 6.38252C37.4975 6.38252 38.283 6.90485 38.4452 7.6923C39.6739 5.87799 41.4684 3.31978 41.9709 2.69457C42.0301 2.60365 42.1106 2.52855 42.2055 2.4758C42.3003 2.42305 42.4065 2.39422 42.515 2.39185C43.1204 2.39185 43.7239 3.25844 43.7239 3.97466C43.7309 4.18978 43.6607 4.4003 43.526 4.56822C42.8019 5.46844 39.4364 10.4484 39.013 11.0716ZM33.0478 13.0026C33.0478 13.3449 33.2298 13.525 33.5128 13.525C34.1973 13.525 35.5467 12.4961 36.7555 10.3811C36.6629 10.4308 36.5599 10.4579 36.4548 10.4603C36.4139 10.4644 36.3725 10.4603 36.3332 10.4484C36.2938 10.4365 36.2571 10.4169 36.2253 10.3908C36.1935 10.3647 36.1672 10.3326 36.1479 10.2963C36.1285 10.26 36.1165 10.2202 36.1125 10.1793C36.1116 10.1661 36.1116 10.1529 36.1125 10.1397C36.1125 9.91616 36.3104 9.65499 36.7575 9.5343C37.0127 9.43981 37.2327 9.26919 37.3877 9.04554C37.5427 8.82188 37.6252 8.556 37.6241 8.28388C37.6241 8.02272 37.5034 7.82091 37.2423 7.82091C36.7575 7.82091 35.792 8.50745 34.1182 10.7887C33.3723 11.8195 33.0498 12.5694 33.0498 13.0086L33.0478 13.0026Z" fill="#DB2512"/>
<path d="M19.0141 4.28552C19.6785 4.28552 20.217 3.74694 20.217 3.08258C20.217 2.41821 19.6785 1.87964 19.0141 1.87964C18.3497 1.87964 17.8112 2.41821 17.8112 3.08258C17.8112 3.74694 18.3497 4.28552 19.0141 4.28552Z" fill="#DB2512"/>
<path d="M26.564 18.5249V15.5196H27.9034C28.1922 15.5075 28.4749 15.605 28.6948 15.7926C28.7988 15.8814 28.8815 15.9924 28.9369 16.1174C28.9924 16.2423 29.0192 16.3781 29.0154 16.5148C29.0179 16.6597 28.9908 16.8036 28.9357 16.9377C28.8806 17.0717 28.7986 17.1931 28.6948 17.2943C28.5799 17.4094 28.4406 17.4972 28.2873 17.5515L29.0787 18.5249H28.4851L27.7412 17.6148H27.0349V18.5269L26.564 18.5249ZM27.0349 15.9806V17.1578H27.9153C28.085 17.1573 28.2475 17.0895 28.3673 16.9693C28.4871 16.8492 28.5544 16.6864 28.5544 16.5167C28.5573 16.4464 28.5444 16.3763 28.5167 16.3116C28.489 16.2469 28.4471 16.1892 28.3941 16.1428C28.2596 16.0311 28.0878 15.9745 27.9133 15.9845L27.0349 15.9806Z" fill="black"/>
<path d="M31.3877 18.4261C31.1909 18.5304 30.9715 18.5848 30.7487 18.5844C30.4352 18.5717 30.1388 18.4383 29.9215 18.212C29.7042 17.9858 29.5829 17.6843 29.5829 17.3706C29.5829 17.0569 29.7042 16.7553 29.9215 16.5291C30.1388 16.3028 30.4352 16.1694 30.7487 16.1567C30.9587 16.1569 31.1651 16.2117 31.3476 16.3158C31.5301 16.4198 31.6823 16.5696 31.7894 16.7503L31.9101 16.9481L30.2343 17.9156C30.373 18.0468 30.5578 18.1179 30.7487 18.1135C30.8914 18.1143 31.0323 18.0817 31.1602 18.0185C31.286 17.955 31.3946 17.862 31.4768 17.7475L31.8725 17.9849C31.7497 18.1696 31.5832 18.3212 31.3877 18.4261ZM30.0028 17.514L31.2334 16.8037C31.1951 16.7712 31.1541 16.7421 31.1107 16.7167C30.9976 16.6537 30.8702 16.621 30.7408 16.6217C30.6421 16.6209 30.5444 16.6397 30.453 16.6769C30.3617 16.7142 30.2787 16.7692 30.2088 16.8388C30.1389 16.9083 30.0834 16.991 30.0457 17.0821C30.008 17.1733 29.9887 17.271 29.9889 17.3696C29.9885 17.4181 29.9932 17.4665 30.0028 17.514Z" fill="black"/>
<path d="M38.8328 15.5173V15.9803H38.3718V15.5173H38.8328ZM38.8328 16.2157V18.5247H38.3718V16.2157H38.8328Z" fill="black"/>
<path d="M41.1774 16.8215C41.1168 16.7563 41.0428 16.7048 40.9605 16.6707C40.8782 16.6366 40.7896 16.6205 40.7006 16.6236C40.6118 16.6201 40.5233 16.636 40.4413 16.6702C40.3593 16.7044 40.2858 16.756 40.2257 16.8215C40.091 16.9707 40.02 17.1667 40.0279 17.3676V18.525H39.5669V16.2161H40.0279V16.4416C40.1115 16.3467 40.2153 16.2718 40.3318 16.2225C40.4482 16.1732 40.5743 16.1507 40.7006 16.1567C40.8539 16.1529 41.0061 16.1824 41.1469 16.2432C41.2876 16.304 41.4135 16.3947 41.5157 16.5089C41.5912 16.5904 41.6545 16.6824 41.7037 16.7819L41.308 17.0114C41.275 16.9415 41.2309 16.8773 41.1774 16.8215Z" fill="black"/>
<path d="M35.3191 18.0103C35.2498 18.1139 35.1731 18.2124 35.0896 18.3051C35.2409 18.4703 35.424 18.6032 35.6281 18.6957C35.8321 18.7882 36.0527 18.8384 36.2767 18.8432C36.5905 18.8434 36.8929 18.7258 37.1241 18.5136C37.3552 18.3015 37.4984 18.0103 37.5252 17.6977C37.5271 17.6621 37.5271 17.6264 37.5252 17.5908H36.7891C36.7891 17.6106 36.7891 17.6304 36.7891 17.6502C36.7901 17.6653 36.7901 17.6805 36.7891 17.6957L36.7773 17.7392C36.7739 17.7528 36.7692 17.766 36.7634 17.7788C36.7641 17.7834 36.7641 17.788 36.7634 17.7926C36.7596 17.8029 36.755 17.8128 36.7496 17.8223C36.7437 17.8346 36.7371 17.8465 36.7298 17.8579L36.708 17.8896C36.7026 17.899 36.6959 17.9076 36.6882 17.9153L36.6744 17.9331L36.6566 17.9509L36.6388 17.9667L36.617 17.9865L36.5854 18.0103L36.5596 18.0261L36.5458 18.036L36.5161 18.0518H36.5042C36.4928 18.0576 36.4809 18.0622 36.4686 18.0657L36.4271 18.0795H36.3915H36.3499H36.2609H36.2352H36.2233H36.1659C36.1237 18.07 36.0821 18.0581 36.0413 18.0439H36.0314C36.0173 18.04 36.004 18.034 35.9918 18.0261L35.9344 17.9964L35.9047 17.9786H35.8949C35.8616 17.9571 35.8298 17.9333 35.7999 17.9074L35.788 17.8975C35.7766 17.8893 35.766 17.88 35.7564 17.8698L35.7425 17.8579L35.7049 17.8223L35.6911 17.8085L35.6693 17.7847L35.6515 17.7649L35.6376 17.7491L35.5941 17.6996L35.5447 17.7788L35.5209 17.8223C35.458 17.8894 35.3905 17.9522 35.3191 18.0103Z" fill="black"/>
<path d="M35.3191 18.0103C35.437 18.1502 35.583 18.2639 35.7476 18.344C35.9122 18.4241 36.0918 18.4688 36.2747 18.4752C36.491 18.4758 36.6999 18.3969 36.8619 18.2536C37.0238 18.1102 37.1275 17.9124 37.1532 17.6977C37.1561 17.6621 37.1561 17.6264 37.1532 17.5908H36.7852C36.7852 17.6106 36.7852 17.6304 36.7852 17.6502C36.7861 17.6653 36.7861 17.6805 36.7852 17.6957C36.7834 17.7107 36.7793 17.7254 36.7733 17.7392C36.7699 17.7528 36.7653 17.766 36.7595 17.7788C36.7601 17.7834 36.7601 17.788 36.7595 17.7926C36.7557 17.8029 36.751 17.8128 36.7456 17.8223C36.7398 17.8346 36.7332 17.8465 36.7258 17.8579L36.7041 17.8896C36.6986 17.899 36.6919 17.9076 36.6843 17.9153L36.6704 17.9331L36.6526 17.9509L36.6348 17.9667L36.613 17.9865L36.5814 18.0103L36.5557 18.0261L36.5418 18.036L36.5121 18.0518H36.5003C36.4889 18.0576 36.4769 18.0622 36.4647 18.0657L36.4231 18.0795H36.3875H36.3459H36.2569H36.2312H36.2193H36.1619C36.1198 18.07 36.0781 18.0581 36.0373 18.0439H36.0274L35.9878 18.0261L35.9305 17.9964L35.9008 17.9786H35.8909C35.8576 17.9571 35.8259 17.9333 35.7959 17.9074L35.784 17.8975C35.7726 17.8893 35.762 17.88 35.7524 17.8698L35.7385 17.8579L35.7009 17.8223L35.6871 17.8085L35.6653 17.7847L35.6475 17.7649L35.6337 17.7491L35.5901 17.6996L35.5407 17.7788L35.5169 17.8223C35.4553 17.8893 35.3892 17.9521 35.3191 18.0103Z" fill="black"/>
<path d="M32.5076 17.591H33.2436C33.2435 17.5551 33.2475 17.5192 33.2555 17.4842C33.2751 17.3856 33.3241 17.2952 33.396 17.225L33.4138 17.2072L33.4434 17.1834L33.4731 17.1617L33.5048 17.1419C33.5262 17.1293 33.5487 17.1188 33.572 17.1102C33.5957 17.1003 33.6202 17.0923 33.6452 17.0865C33.6836 17.0785 33.7228 17.0745 33.762 17.0746C33.7916 17.0726 33.8214 17.0726 33.851 17.0746H33.8945H33.9361L33.9776 17.0865L34.0172 17.0984L34.0568 17.1142L34.0944 17.132L34.1438 17.1557L34.1973 17.1874L34.217 17.2012L34.2527 17.227L34.3021 17.2645L34.3358 17.2922L34.3694 17.3219C34.4091 17.3602 34.4467 17.4005 34.4822 17.4426C34.492 17.4533 34.5012 17.4646 34.5099 17.4762L34.5613 17.3971L34.585 17.3536C34.6228 17.2853 34.6644 17.2193 34.7097 17.1557C34.7796 17.0525 34.8563 16.9541 34.9392 16.8609C34.7883 16.6951 34.6053 16.5616 34.4012 16.4688C34.1971 16.3759 33.9763 16.3256 33.7521 16.3208C33.4381 16.3211 33.1357 16.4392 32.9046 16.6517C32.6735 16.8641 32.5304 17.1555 32.5036 17.4683C32.5024 17.5093 32.5037 17.5502 32.5076 17.591Z" fill="black"/>
<path d="M32.8756 17.591H33.2436C33.2436 17.555 33.2476 17.5192 33.2555 17.4841C33.2751 17.3855 33.3241 17.2952 33.396 17.2249L33.4138 17.2071L33.4435 17.1834L33.4731 17.1616L33.5048 17.1418C33.5262 17.1293 33.5488 17.1187 33.5721 17.1102C33.5958 17.1002 33.6202 17.0923 33.6453 17.0864C33.6836 17.0778 33.7227 17.0732 33.762 17.0726H33.8511H33.8946H33.9361L33.9777 17.0845L34.0172 17.0963L34.0568 17.1122L34.0944 17.13L34.1439 17.1537L34.1973 17.1854L34.2171 17.1992L34.2527 17.2249L34.3021 17.2625L34.3358 17.2902L34.3694 17.3199C34.4091 17.3581 34.4467 17.3984 34.4822 17.4406C34.492 17.4513 34.5013 17.4625 34.5099 17.4742L34.5613 17.3951L34.5851 17.3515C34.6228 17.2833 34.6644 17.2172 34.7097 17.1537C34.592 17.0133 34.4461 16.8991 34.2815 16.8187C34.1169 16.7383 33.9372 16.6933 33.7541 16.6868C33.5377 16.6867 33.3287 16.766 33.1668 16.9097C33.0049 17.0533 32.9013 17.2514 32.8756 17.4663C32.8715 17.5078 32.8715 17.5495 32.8756 17.591Z" fill="black"/>
<path d="M33.7362 16.3386V17.0746C33.6036 17.0812 33.4786 17.1385 33.3869 17.2345C33.2952 17.3306 33.2439 17.4582 33.2436 17.591H32.5076C32.5085 17.2633 32.6375 16.9488 32.8671 16.7148C33.0966 16.4809 33.4085 16.3458 33.7362 16.3386Z" fill="#DB2512"/>
<path d="M33.1941 17.5376C33.2059 17.4098 33.2607 17.2898 33.3494 17.1971C33.4381 17.1044 33.5557 17.0445 33.6828 17.0272V16.394C33.3887 16.4149 33.1124 16.5428 32.9061 16.7535C32.6998 16.9642 32.5777 17.2431 32.563 17.5376H33.1941Z" fill="#DB2512"/>
<path d="M32.8677 17.5357H32.8954C32.9258 17.5355 32.9552 17.5251 32.979 17.506C33.0027 17.487 33.0192 17.4605 33.0259 17.4308C33.0618 17.2671 33.151 17.12 33.2796 17.0126C33.4082 16.9051 33.5688 16.8435 33.7362 16.8372V16.5642C33.5077 16.5708 33.2879 16.6537 33.1119 16.7996C32.9359 16.9455 32.8137 17.1461 32.7648 17.3695C32.7604 17.3871 32.7596 17.4055 32.7624 17.4235C32.7652 17.4415 32.7716 17.4588 32.7812 17.4743C32.7908 17.4897 32.8034 17.5031 32.8182 17.5137C32.8331 17.5242 32.8499 17.5317 32.8677 17.5357Z" fill="#DB2512"/>
<path d="M33.6294 20.5765L33.2753 21H33.1566V20.3273L32.8756 20.2066L32.5947 20.3273V21H32.4779L32.1238 20.5765V20.0641L32.5076 19.6783V19.52H33.2436V19.6783L33.6294 20.0641V20.5765Z" fill="#DB2512"/>
<path d="M36.3004 18.8432V18.1072C36.433 18.1006 36.5581 18.0434 36.6498 17.9473C36.7414 17.8512 36.7927 17.7236 36.7931 17.5908H37.5212C37.5208 17.9174 37.393 18.231 37.165 18.4649C36.9371 18.6987 36.6269 18.8345 36.3004 18.8432Z" fill="#DB2512"/>
<path d="M36.8425 17.6444C36.8293 17.7709 36.774 17.8893 36.6853 17.9804C36.5966 18.0716 36.4798 18.1303 36.3538 18.1469V18.7801C36.648 18.7596 36.9246 18.6318 37.131 18.4211C37.3374 18.2103 37.4593 17.9311 37.4736 17.6365L36.8425 17.6444Z" fill="#DB2512"/>
<path d="M37.169 17.6462H37.1413C37.1109 17.6464 37.0814 17.6568 37.0577 17.6759C37.034 17.6949 37.0174 17.7214 37.0107 17.7511C36.9752 17.9149 36.886 18.0622 36.7574 18.1697C36.6288 18.2772 36.468 18.3388 36.3004 18.3447V18.6118C36.529 18.6051 36.7487 18.5223 36.9248 18.3764C37.1008 18.2304 37.223 18.0299 37.2719 17.8065C37.2756 17.7892 37.276 17.7714 37.2729 17.754C37.2697 17.7365 37.2632 17.7199 37.2537 17.705C37.2441 17.6902 37.2317 17.6773 37.2172 17.6672C37.2026 17.6571 37.1863 17.65 37.169 17.6462Z" fill="#DB2512"/>
<path d="M36.4073 16.5347L36.7615 16.1113H36.8802V16.784L37.1612 16.9067L37.4421 16.784V16.1113H37.5608L37.915 16.5347V17.0472L37.5292 17.433V17.5932H36.7932V17.433L36.4073 17.0472V16.5347Z" fill="#C20C0D"/>
<path d="M37.4955 16.1685V16.7858C37.4953 16.7961 37.4923 16.8063 37.4867 16.815C37.4811 16.8238 37.4732 16.8308 37.4638 16.8352L37.1828 16.9579H37.1611H37.1393L36.8584 16.8352C36.8487 16.8312 36.8405 16.8243 36.8348 16.8154C36.8291 16.8066 36.8263 16.7962 36.8267 16.7858V16.1685H36.7871L36.4607 16.5642V17.035L36.8307 17.407C36.8407 17.417 36.8464 17.4305 36.8465 17.4446V17.6563H37.4757V17.4446C37.4758 17.4305 37.4815 17.417 37.4915 17.407L37.8615 17.035V16.5642L37.535 16.1685H37.4955Z" fill="#DB2512"/>
<path d="M33.2436 17.5376H32.5076V19.5399H33.2436V17.5376Z" fill="#DB2512"/>
<path d="M33.8411 18.8372C34.8026 18.77 35.321 17.8104 35.3467 17.755C35.3782 17.6985 35.4126 17.6437 35.4496 17.5908C35.5026 17.5163 35.5615 17.4461 35.6257 17.381C35.6554 17.3514 35.685 17.3237 35.7187 17.296C35.7597 17.261 35.8034 17.2292 35.8493 17.201L35.9066 17.1674L35.968 17.1377L36.0293 17.1139C36.1076 17.087 36.1898 17.073 36.2727 17.0724H36.3023C36.3015 17.0632 36.3015 17.0539 36.3023 17.0447V16.5303C36.3027 16.5055 36.3118 16.4817 36.3281 16.463L36.427 16.3443C36.3769 16.3413 36.3267 16.3413 36.2766 16.3443C35.2478 16.3443 34.7195 17.3771 34.6938 17.4345C34.6644 17.4917 34.6307 17.5466 34.5929 17.5987L34.5474 17.658C34.5148 17.7009 34.4798 17.7419 34.4425 17.7807C34.4343 17.7909 34.425 17.8002 34.4148 17.8084C34.3897 17.8355 34.3626 17.8606 34.3337 17.8836C34.3206 17.8971 34.306 17.909 34.2902 17.9192L34.2447 17.9548L34.1655 18.0043L34.1398 18.0181L34.1121 18.032L34.0508 18.0597L34.027 18.0696L33.9914 18.0814H33.9637H33.9321H33.9004H33.8351H33.4038V18.8194" fill="black"/>
<path d="M31.1581 16.1149C31.2492 15.9467 31.2511 15.9487 31.3916 16.0279C31.5321 16.107 31.6092 16.1545 31.72 16.2138C31.7695 16.2415 31.7952 16.2811 31.7517 16.3345L31.6271 16.5601L31.0869 16.2376L31.1581 16.1149Z" fill="black"/>
<path d="M30.2225 16.182C30.1908 15.998 30.1928 15.998 30.3531 15.9742L30.727 15.9149C30.7824 15.905 30.8259 15.9149 30.8259 15.9861L30.8655 16.2354L30.2442 16.3165L30.2225 16.182Z" fill="black"/>
<path d="M29.5556 16.8709C29.4053 16.7779 29.4053 16.7759 29.4943 16.6394C29.5616 16.5326 29.6308 16.4277 29.6922 16.3209C29.7218 16.2734 29.7614 16.2496 29.8089 16.2932L30.0819 16.4613L29.6862 16.9718L29.5556 16.8709Z" fill="black"/>
<path d="M29.5437 17.9113C29.3716 17.9469 29.3716 17.9469 29.3459 17.7867C29.3221 17.664 29.3003 17.5394 29.2726 17.4167C29.2608 17.3613 29.2726 17.3178 29.336 17.3158L29.6466 17.2505L29.7435 17.8678L29.5437 17.9113Z" fill="black"/>
<path d="M30.3114 18.6337C30.2402 18.7742 30.2402 18.7742 30.0957 18.697L29.7614 18.5229C29.7099 18.4972 29.6822 18.4635 29.7178 18.418L29.8445 18.1648L30.4182 18.4853L30.3114 18.6337Z" fill="black"/>
<path d="M31.3738 18.5663C31.4094 18.7186 31.4074 18.7186 31.2491 18.7523C31.1245 18.778 31.0018 18.8017 30.8792 18.8294C30.8238 18.8413 30.7802 18.8294 30.7783 18.776L30.7169 18.499L31.3619 18.3843L31.3738 18.5663Z" fill="black"/>
</svg>
