<svg width="24" height="26" viewBox="0 0 24 26" fill="none" xmlns="http://www.w3.org/2000/svg">
<path d="M22.176 7.03622H18.3416V1.22541C18.3416 0.553411 17.7882 0 17.1162 0H6.28517C5.61317 0 5.05976 0.553411 5.05976 1.22541V7.03622H1.22541C0.553413 7.03622 0 7.58963 0 8.26163V18.1044C0 18.7764 0.553413 19.3298 1.22541 19.3298H5.05976V23.7967C5.05976 24.5082 5.6527 25.1011 6.36422 25.1011H17.0371C17.7487 25.1011 18.3416 24.5082 18.3416 23.7967V19.3694H22.176C22.848 19.3694 23.4014 18.816 23.4014 18.144V8.26163C23.4014 7.58963 22.848 7.03622 22.176 7.03622ZM5.81082 1.22541C5.81082 0.988233 6.00846 0.790587 6.24564 0.790587H17.0767C17.3139 0.790587 17.5115 0.988233 17.5115 1.22541V7.03622H5.77128V1.22541H5.81082ZM17.5115 23.8362C17.5115 24.1129 17.2743 24.3501 16.9976 24.3501H6.28517C6.00846 24.3501 5.77128 24.1129 5.77128 23.8362V14.5468H17.5115V23.8362ZM22.6108 18.144C22.6108 18.3811 22.4131 18.5788 22.176 18.5788H18.3416V14.1515C18.3416 13.9143 18.1835 13.7562 17.9463 13.7562H5.41552C5.17835 13.7562 5.02023 13.9143 5.02023 14.1515V18.5788H1.18588C0.948704 18.5788 0.751061 18.3811 0.751061 18.144V8.26163C0.751061 8.02445 0.948704 7.82681 1.18588 7.82681H22.176C22.4131 7.82681 22.6108 8.02445 22.6108 8.26163V18.144Z" fill="#231F20"/>
</svg>
